<svg width="458" height="515" xmlns="http://www.w3.org/2000/svg">

 <g id="imagebot_2">
  <path fill-rule="evenodd" stroke="black" stroke-width="0.036" stroke-miterlimit="10" fill="#ffd4aa" d="M 49.911219689531265 241.7500766607991 C 49.911219689531265 352.3600766607991 122.98321968953124 442.0700766607991 213.12121968953124 442.0700766607991 C 303.26121968953123 442.0700766607991 376.3312196895312 352.3600766607991 376.3312196895312 241.7500766607991 C 376.3312196895312 131.1100766607991 303.26121968953123 41.390076660799096 213.12121968953124 41.390076660799096 C 122.98121968953126 41.39507666079909 49.911219689531265 131.1100766607991 49.911219689531265 241.7500766607991 L 49.909219689531255 241.7500766607991 L 49.911219689531265 241.7500766607991 z" id="imagebot_49"/>
  <path stroke="black" stroke-width="0.036" stroke-miterlimit="10" fill-rule="evenodd" d="M 249.52071968953126 214.1200766607991 C 250.21071968953126 219.3700766607991 245.95071968953124 224.2700766607991 240.00071968953125 225.0500766607991 C 234.05071968953126 225.8400766607991 228.65071968953126 222.2100766607991 227.95071968953124 216.9600766607991 C 227.26071968953124 211.70007666079908 231.55071968953126 206.8100766607991 237.50071968953125 206.0300766607991 C 243.44071968953125 205.2400766607991 248.82071968953124 208.8700766607991 249.52071968953126 214.1200766607991 z" id="imagebot_44"/>
  <path fill-rule="evenodd" stroke="black" stroke-width="0.036" stroke-miterlimit="10" fill="white" d="M 240.70071968953124 213.4900766607991 C 240.94071968953125 215.0900766607991 239.79071968953124 216.6000766607991 238.16071968953125 216.8100766607991 C 236.56071968953125 217.0200766607991 235.05071968953126 215.8700766607991 234.84071968953126 214.2400766607991 C 234.63071968953125 212.64007666079908 235.78071968953125 211.1300766607991 237.40071968953126 210.92007666079908 C 239.01071968953124 210.7100766607991 240.48071968953124 211.8600766607991 240.70071968953124 213.4900766607991 z" id="imagebot_43"/>
  <path stroke="black" stroke-width="0.036" stroke-miterlimit="10" fill-rule="evenodd" d="M 193.74071968953126 210.8600766607991 C 191.24071968953126 215.6600766607991 193.53071968953125 221.8200766607991 198.84071968953126 224.6000766607991 C 204.16071968953125 227.3800766607991 210.53071968953125 225.7400766607991 213.04071968953124 220.9400766607991 C 215.54071968953124 216.14007666079908 213.25071968953125 210.0100766607991 207.93071968953126 207.20007666079908 C 202.62071968953126 204.4300766607991 196.28071968953125 206.0600766607991 193.74071968953126 210.8600766607991 z" id="imagebot_42"/>
  <path fill-rule="evenodd" stroke="black" stroke-width="0.036" stroke-miterlimit="10" fill="white" d="M 199.45071968953124 211.8200766607991 C 198.69071968953125 213.2700766607991 199.24071968953126 215.0600766607991 200.69071968953125 215.8100766607991 C 202.14071968953124 216.6000766607991 203.92071968953124 216.0200766607991 204.70071968953124 214.5700766607991 C 205.46071968953126 213.1200766607991 204.88071968953125 211.3400766607991 203.44071968953125 210.5900766607991 C 201.98071968953124 209.8300766607991 200.20071968953124 210.3800766607991 199.45071968953124 211.8200766607991 z" id="imagebot_41"/>
  <path stroke="black" stroke-width="0.036" stroke-miterlimit="10" fill-rule="evenodd" d="M 258.6607196895313 193.7700766607991 C 256.1607196895313 192.20007666079908 251.11071968953127 189.8400766607991 247.37071968953126 188.6600766607991 C 243.51071968953124 187.3400766607991 238.86071968953127 186.4600766607991 235.99071968953126 186.4000766607991 C 232.97071968953125 186.2800766607991 230.34071968953126 187.1600766607991 229.98071968953124 188.0900766607991 C 229.64071968953124 189.0000766607991 231.52071968953126 191.0200766607991 234.08071968953126 191.8400766607991 C 236.65071968953126 192.4700766607991 241.21071968953126 191.5900766607991 244.86071968953127 192.4700766607991 C 248.40071968953126 193.3800766607991 252.26071968953124 195.4300766607991 254.95071968953124 196.8800766607991 C 257.46071968953123 198.1200766607991 259.18071968953126 200.0500766607991 260.3507196895313 200.23007666079909 C 261.50071968953125 200.2900766607991 262.1007196895313 198.9900766607991 261.92071968953127 197.8400766607991 C 261.68071968953126 196.73007666079909 260.99071968953126 195.2500766607991 258.6607196895313 193.7700766607991 z" id="imagebot_40"/>
  <path stroke="black" stroke-width="0.036" stroke-miterlimit="10" fill-rule="evenodd" d="M 185.77071968953126 188.8800766607991 C 188.19071968953125 187.5500766607991 193.17071968953124 186.0100766607991 196.97071968953125 185.1900766607991 C 200.69071968953125 184.4100766607991 205.19071968953125 183.98007666079909 208.03071968953125 184.2800766607991 C 210.77071968953126 184.5900766607991 213.34071968953126 185.67007666079908 213.64071968953124 186.73007666079909 C 213.85071968953125 187.64007666079908 211.83071968953126 189.48007666079909 209.44071968953125 189.9300766607991 C 206.88071968953125 190.3200766607991 202.53071968953125 188.7800766607991 199.09071968953126 189.2700766607991 C 195.55071968953126 189.7200766607991 191.72071968953125 191.3500766607991 189.09071968953126 192.4100766607991 C 186.43071968953126 193.3700766607991 184.77071968953126 195.0000766607991 183.66071968953125 195.1000766607991 C 182.48071968953124 195.0400766607991 181.96071968953126 193.5600766607991 182.36071968953127 192.5300766607991 C 182.66071968953125 191.4400766607991 183.29071968953124 190.1100766607991 185.77071968953126 188.8800766607991 z" id="imagebot_39"/>
  <path stroke="black" stroke-width="0.036" stroke-miterlimit="10" fill-rule="evenodd" d="M 215.24071968953126 373.9500766607991 C 208.66071968953125 373.1000766607991 206.03071968953125 373.3800766607991 198.51071968953124 370.5400766607991 C 190.96071968953126 367.6700766607991 178.82071968953124 362.84007666079907 170.46071968953126 357.0700766607991 C 162.13071968953125 351.2700766607991 155.54071968953124 344.9000766607991 148.93071968953126 336.0500766607991 C 142.32071968953124 327.1400766607991 135.37071968953126 315.0400766607991 131.08071968953126 304.3200766607991 C 126.83071968953125 293.6000766607991 124.35071968953125 283.1200766607991 123.48071968953126 272.34007666079907 C 124.26071968953126 270.4700766607991 124.71071968953125 268.4100766607991 124.95071968953125 265.9400766607991 C 125.14071968953125 263.3700766607991 125.26071968953126 258.5400766607991 124.74071968953125 257.6300766607991 C 124.11071968953125 256.7600766607991 122.51071968953126 258.1500766607991 121.69071968953125 260.6500766607991 C 120.88071968953125 263.0700766607991 121.12071968953126 268.6200766607991 119.85071968953125 272.3100766607991 C 118.40071968953126 275.9000766607991 114.51071968953126 279.8000766607991 113.42071968953125 282.4800766607991 C 112.27071968953125 285.1400766607991 112.84071968953126 287.4400766607991 113.18071968953126 288.2200766607991 C 113.39071968953125 288.8900766607991 113.99071968953125 288.5800766607991 115.23071968953126 286.8300766607991 C 116.47071968953125 285.0200766607991 118.19071968953125 282.1200766607991 120.52071968953125 277.8000766607991 C 122.15071968953126 288.4300766607991 125.20071968953125 298.9700766607991 129.79071968953124 309.78007666079907 C 134.28071968953125 320.5600766607991 140.23071968953124 332.8800766607991 147.99071968953126 342.2100766607991 C 155.72071968953125 351.4200766607991 167.62071968953126 359.4000766607991 176.23071968953124 364.8300766607991 C 184.89071968953124 370.1400766607991 192.93071968953126 372.0200766607991 199.27071968953126 374.1900766607991 C 205.43071968953126 376.2700766607991 208.27071968953126 376.7600766607991 213.01071968953124 377.3900766607991 C 217.75071968953125 377.9100766607991 222.31071968953125 377.9100766607991 227.14071968953124 377.3900766607991 C 231.79071968953124 376.7600766607991 234.66071968953125 376.2700766607991 240.88071968953125 374.1900766607991 C 247.13071968953125 372.0200766607991 255.19071968953125 370.1400766607991 263.92071968953127 364.8300766607991 C 272.46071968953123 359.4000766607991 284.36071968953127 351.4200766607991 292.15071968953123 342.2100766607991 C 299.88071968953125 332.8800766607991 305.68071968953126 320.5600766607991 310.36071968953127 309.78007666079907 C 314.98071968953127 298.9700766607991 318.00071968953125 288.4300766607991 319.6607196895313 277.8000766607991 C 320.56071968953125 280.9700766607991 322.0407196895313 283.1200766607991 324.1007196895313 284.3600766607991 C 326.0907196895312 285.5400766607991 331.68071968953126 286.2900766607991 331.77071968953123 285.1100766607991 C 331.77071968953123 283.8700766607991 326.06071968953125 279.9200766607991 324.1007196895313 277.2000766607991 C 321.95071968953124 274.3900766607991 320.38071968953125 271.8200766607991 319.51071968953124 268.5600766607991 C 318.6607196895313 265.1800766607991 319.51071968953124 258.6900766607991 318.90071968953123 257.2400766607991 C 318.12071968953126 255.70007666079908 316.18071968953126 258.3300766607991 315.55071968953126 259.78007666079907 C 314.92071968953127 261.2600766607991 314.92071968953127 263.7300766607991 315.19071968953125 265.9400766607991 C 315.40071968953123 268.0500766607991 315.8507196895313 270.1000766607991 316.67071968953127 272.34007666079907 C 315.82071968953124 283.1200766607991 313.32071968953124 293.6000766607991 309.06071968953125 304.3200766607991 C 304.77071968953123 315.0400766607991 297.83071968953124 327.1400766607991 291.21071968953123 336.0500766607991 C 284.6007196895313 344.9000766607991 278.02071968953123 351.2700766607991 269.68071968953126 357.0700766607991 C 261.32071968953124 362.84007666079907 249.18071968953126 367.6700766607991 241.63071968953125 370.5400766607991 C 234.11071968953127 373.3800766607991 231.48071968953124 373.1000766607991 224.90071968953126 373.9500766607991 C 218.32071968953124 374.8300766607991 221.85071968953125 374.8300766607991 215.24071968953126 373.9500766607991 z" id="imagebot_38"/>
  <path fill-rule="evenodd" stroke="black" stroke-width="0.036" stroke-miterlimit="10" fill="#bf5f00" d="M 42.10421968953125 140.38757666079908 C 38.14821968953126 149.6575766607991 34.857219689531235 159.4975766607991 32.35121968953126 167.4775766607991 C 29.724219689531253 175.32757666079908 27.88221968953124 181.3975766607991 26.94621968953126 187.5575766607991 C 26.010219689531255 193.7475766607991 25.889219689531245 199.6975766607991 26.94621968953126 204.0975766607991 C 27.97321968953125 208.35757666079908 28.637219689531264 211.9475766607991 32.895219689531245 213.1275766607991 C 37.153219689531255 214.2775766607991 43.70621968953125 213.6775766607991 51.85821968953125 210.6275766607991 C 59.95121968953126 207.3075766607991 70.48921968953125 201.6275766607991 80.57521968953125 194.07757666079908 C 90.47921968953125 186.4975766607991 102.13821968953125 175.8075766607991 110.88821968953125 165.9675766607991 C 119.46821968953125 156.1175766607991 125.65821968953125 147.5175766607991 132.02821968953126 135.3775766607991 C 138.36821968953126 123.0275766607991 144.46821968953125 106.98757666079909 148.81821968953125 93.2215766607991 C 153.04821968953127 79.3605766607991 155.69821968953124 64.5955766607991 157.48821968953126 53.5735766607991 C 159.17821968953126 42.5525766607991 160.41821968953124 33.251576660799095 159.11821968953126 27.997576660799098 C 157.75821968953124 22.742576660799095 154.73821968953126 21.836576660799096 149.35821968953124 22.471576660799094 C 143.89821968953126 22.984576660799096 136.85821968953124 23.860576660799094 126.62821968953125 31.500576660799098 C 116.17821968953125 39.169576660799095 99.47821968953126 54.6015766607991 87.61021968953125 68.1285766607991 C 75.62221968953125 81.62657666079909 63.302219689531256 99.5625766607991 55.66221968953124 111.78757666079909 C 48.05321968953126 123.9275766607991 45.93921968953126 130.9375766607991 42.10421968953125 140.38757666079908 z" id="imagebot_35"/>
  <path stroke="black" stroke-width="0.036" stroke-miterlimit="10" fill-rule="evenodd" d="M 143.34071968953126 31.311076660799095 C 135.80071968953126 37.561076660799095 117.19071968953125 54.23007666079909 104.33071968953125 70.4760766607991 C 91.43671968953126 86.6610766607991 77.18471968953125 108.9500766607991 66.94771968953125 127.6700766607991 C 56.71171968953125 146.3300766607991 47.86371968953125 169.8200766607991 43.66671968953125 181.3600766607991 C 39.46971968953125 192.6200766607991 41.52271968953125 194.73007666079909 42.03571968953125 195.4000766607991 C 42.42871968953125 195.9100766607991 43.18371968953125 192.98007666079909 46.38471968953125 184.8600766607991 C 49.52571968953125 176.5600766607991 53.81271968953125 161.0000766607991 60.999719689531254 146.7200766607991 C 68.24671968953125 132.2900766607991 79.93371968953126 113.1400766607991 89.17271968953125 99.5540766607991 C 98.26171968953125 85.9650766607991 106.93071968953126 75.1850766607991 115.17071968953125 65.9460766607991 C 123.29071968953126 56.7060766607991 131.75071968953125 49.790076660799095 137.40071968953126 44.3860766607991 C 142.98071968953124 38.9200766607991 147.09071968953126 35.5080766607991 148.21071968953126 33.333076660799094 C 149.14071968953124 31.070076660799096 150.62071968953126 25.120076660799096 143.34071968953126 31.311076660799095 z" id="imagebot_34"/>
  <path stroke="black" stroke-width="0.036" stroke-miterlimit="10" fill-rule="evenodd" d="M 132.16321968953125 61.552076660799095 C 126.97321968953125 67.2900766607991 117.15321968953126 80.4550766607991 109.94321968953125 94.1640766607991 C 102.66321968953125 107.8750766607991 98.28321968953125 126.50507666079909 89.34621968953125 142.8450766607991 C 80.25721968953125 159.0550766607991 61.77721968953125 182.1550766607991 56.85421968953125 190.4950766607991 C 52.083219689531255 198.5850766607991 55.91821968953125 196.6250766607991 60.659219689531255 191.4850766607991 C 65.28021968953125 186.1150766607991 77.69021968953125 169.6250766607991 84.48421968953126 159.3850766607991 C 91.18821968953125 149.1550766607991 96.02321968953125 141.2150766607991 100.73321968953125 130.7950766607991 C 105.32321968953126 120.25507666079909 106.43321968953126 108.08507666079909 112.11321968953125 97.1840766607991 C 117.82321968953126 86.25207666079909 129.41321968953125 72.3020766607991 134.31321968953125 66.0510766607991 C 138.99321968953126 59.7700766607991 140.59321968953125 60.79707666079909 140.28321968953125 60.0420766607991 C 139.86321968953126 59.1670766607991 137.27321968953126 55.906076660799094 132.16321968953125 61.552076660799095 z" id="imagebot_33"/>
  <path stroke="black" stroke-width="0.036" stroke-miterlimit="10" fill-rule="evenodd" d="M 66.94771968953125 213.2100766607991 C 66.94771968953125 214.7200766607991 67.97371968953125 215.9600766607991 69.21271968953126 215.9600766607991 C 70.42071968953125 215.9600766607991 71.41771968953125 214.7200766607991 71.41771968953125 213.2100766607991 S 70.42071968953125 210.4700766607991 69.21271968953126 210.4700766607991 C 67.97471968953126 210.4700766607991 66.94771968953125 211.70007666079908 66.94771968953125 213.2100766607991 z" id="imagebot_27"/>
  <path fill-rule="evenodd" stroke="black" stroke-width="0.036" stroke-miterlimit="10" fill="#bf5f00" d="M 385.90321968953117 213.3150766607991 C 371.5032196895313 207.6150766607991 354.2632196895313 199.9450766607991 333.3632196895312 189.7350766607991 C 312.31321968953125 179.4650766607991 283.7232196895313 165.85507666079909 261.31321968953125 152.5950766607991 C 238.84321968953122 139.1550766607991 215.41321968953127 123.78507666079909 200.10321968953122 110.4350766607991 C 184.76321968953124 97.0920766607991 177.94321968953125 84.6820766607991 170.33321968953123 73.3280766607991 C 162.75321968953125 61.823076660799096 156.83321968953123 51.4960766607991 155.1432196895313 42.7090766607991 C 153.3932196895313 33.92207666079909 154.90321968953128 25.800076660799096 160.03321968953128 21.119076660799095 C 165.1432196895313 16.348076660799094 172.26321968953124 14.989076660799096 185.49321968953126 14.597076660799097 C 198.68321968953126 14.114076660799096 220.03321968953128 14.053076660799096 238.57321968953124 18.613076660799095 C 257.02321968953123 23.233076660799096 276.83321968953123 32.836076660799094 295.43321968953126 42.19607666079909 C 314.0032196895313 51.61707666079909 335.0232196895313 64.1490766607991 349.06321968953125 74.3250766607991 C 362.92321968953127 84.2890766607991 370.5032196895313 92.56407666079909 378.32321968953124 101.92507666079909 C 386.08321968953123 111.22507666079909 390.2832196895313 120.3150766607991 395.1132196895312 130.0050766607991 C 399.79321968953127 139.6750766607991 403.6332196895312 146.2850766607991 406.5032196895313 159.6350766607991 C 409.33321968953123 173.0050766607991 411.0232196895313 189.2550766607991 411.90321968953117 209.3050766607991 C 409.0032196895313 211.5950766607991 405.44321968953125 213.1350766607991 401.0932196895312 213.8050766607991 C 396.68321968953126 214.4350766607991 391.7332196895313 214.3150766607991 385.90321968953117 213.3150766607991 z" id="imagebot_26"/>
  <path stroke="black" stroke-width="0.036" stroke-miterlimit="10" fill-rule="evenodd" d="M 196.43071968953126 18.779076660799095 C 208.81071968953125 20.349076660799096 238.61071968953127 22.373076660799097 260.90071968953123 31.823076660799096 C 283.18071968953126 41.24507666079909 308.1607196895313 58.5780766607991 328.6007196895313 74.9740766607991 C 348.89071968953124 91.40107666079909 368.37071968953126 111.1800766607991 381.68071968953126 129.1800766607991 C 394.82071968953124 147.14007666079908 403.15071968953123 171.6000766607991 407.14071968953124 181.3600766607991 C 410.9107196895313 190.6900766607991 408.1607196895313 191.6800766607991 404.96071968953123 185.8600766607991 C 401.67071968953127 179.9400766607991 396.12071968953126 160.1000766607991 388.18071968953126 146.7200766607991 C 380.26071968953124 133.2500766607991 372.2907196895313 120.7500766607991 357.86071968953127 106.0800766607991 C 343.27071968953123 91.3100766607991 318.63071968953125 71.5610766607991 301.51071968953124 59.4230766607991 C 284.33071968953124 47.25407666079909 269.8407196895312 39.735076660799095 255.46071968953126 33.8460766607991 C 240.91071968953125 27.898076660799095 226.78071968953125 26.236076660799096 215.39071968953124 24.304076660799094 C 203.98071968953124 22.402076660799096 190.96071968953126 23.126076660799097 187.76071968953124 22.281076660799094 C 184.53071968953125 21.286076660799097 184.20071968953124 17.209076660799095 196.43071968953126 18.779076660799095 z" id="imagebot_25"/>
  <path stroke="black" stroke-width="0.036" stroke-miterlimit="10" fill-rule="evenodd" d="M 185.04071968953124 36.8370766607991 C 190.66071968953125 44.024076660799096 206.18071968953126 64.88907666079909 221.34071968953126 79.5040766607991 C 236.38071968953125 94.0590766607991 251.96071968953126 108.7300766607991 274.9707196895313 123.6500766607991 C 298.0407196895313 138.39007666079908 339.32071968953124 157.8300766607991 358.40071968953123 167.8000766607991 C 377.24071968953126 177.64007666079908 380.90071968953123 178.1600766607991 387.63071968953125 182.8700766607991 C 394.2207196895313 187.5500766607991 395.24071968953126 193.4000766607991 397.93071968953126 195.9100766607991 C 400.5307196895312 198.3600766607991 404.00071968953125 199.7200766607991 403.33071968953124 197.42007666079908 C 402.49071968953126 195.0100766607991 399.2907196895313 186.4300766607991 393.61071968953127 181.8400766607991 C 387.96071968953123 177.2200766607991 386.15071968953123 178.2200766607991 369.76071968953124 169.8200766607991 C 353.12071968953126 161.2200766607991 316.64071968953124 144.4900766607991 295.02071968953123 131.17007666079908 C 273.37071968953126 117.7900766607991 258.69071968953125 106.38007666079909 240.85071968953125 90.52607666079909 C 222.85071968953125 74.5220766607991 197.73071968953124 45.98607666079909 188.31071968953125 36.8370766607991 C 178.95071968953124 27.808076660799095 179.49071968953126 29.710076660799096 185.04071968953124 36.8370766607991 z" id="imagebot_24"/>
  <path stroke="black" stroke-width="0.036" stroke-miterlimit="10" fill-rule="evenodd" d="M 390.95071968953124 214.1500766607991 C 391.44071968953125 215.6000766607991 390.83071968953124 217.0500766607991 389.6607196895313 217.3800766607991 C 388.48071968953127 217.7100766607991 387.15071968953123 216.7800766607991 386.67071968953127 215.3300766607991 C 386.21071968953123 213.8500766607991 386.7907196895313 212.4000766607991 387.96071968953123 212.1000766607991 C 389.14071968953124 211.7600766607991 390.4707196895313 212.67007666079908 390.95071968953124 214.1500766607991 z" id="imagebot_19"/>
  <path fill-rule="evenodd" stroke="black" stroke-width="0.036" stroke-miterlimit="10" fill="#bf5f00" d="M 375.34821968953133 204.6775766607991 C 383.2382196895312 204.9775766607991 390.1182196895313 204.9775766607991 396.45821968953123 204.6775766607991 C 402.7682196895312 204.3175766607991 407.9982196895312 203.6475766607991 412.70821968953123 202.6875766607991 C 413.84821968953133 223.0375766607991 415.66821968953127 240.15757666079912 418.1382196895313 254.8675766607991 C 420.6482196895313 269.4175766607991 425.1182196895313 275.1875766607991 427.34821968953133 289.9875766607991 C 429.4682196895312 304.8975766607991 430.0382196895313 327.21757666079907 430.57821968953124 343.1875766607991 C 431.0082196895312 358.9475766607991 429.6182196895313 369.1275766607991 430.0382196895313 384.3175766607991 C 430.3682196895313 399.5075766607991 431.27821968953117 419.0475766607991 432.7582196895312 433.5075766607991 C 434.17821968953126 447.8475766607991 437.55821968953126 461.0175766607991 438.69821968953124 469.6175766607991 C 439.81821968953125 477.9875766607991 441.20821968953123 482.0575766607991 439.2482196895312 484.1775766607991 C 437.07821968953124 486.2575766607991 433.32821968953124 486.8375766607991 426.2582196895312 482.1575766607991 C 419.07821968953124 477.2575766607991 406.9982196895312 466.1475766607991 396.9982196895312 455.5775766607991 C 386.91821968953127 444.9775766607991 375.95821968953123 433.5075766607991 366.68821968953125 418.9475766607991 C 357.3582196895313 404.21757666079907 346.36821968953126 386.1875766607991 341.74821968953125 368.2575766607991 C 337.05821968953126 350.2275766607991 337.48821968953126 327.7275766607991 339.05821968953126 312.0575766607991 C 340.5982196895313 296.3275766607991 346.69821968953124 285.3975766607991 350.94821968953124 274.9475766607991 C 355.08821968953123 264.46757666079907 360.27821968953117 258.5475766607991 363.9682196895312 249.8575766607991 C 367.6482196895313 241.0675766607991 370.57821968953124 230.2875766607991 372.6382196895313 222.7675766607991 C 374.5082196895312 215.1875766607991 375.41821968953127 209.2375766607991 375.34821968953133 204.6775766607991 z" id="imagebot_13"/>
  <path stroke="black" stroke-width="0.036" stroke-miterlimit="10" fill-rule="evenodd" d="M 396.45071968953124 242.0500766607991 C 394.94071968953125 247.9700766607991 394.3407196895312 262.6500766607991 391.01071968953124 276.1700766607991 C 387.5407196895313 289.5500766607991 378.7207196895313 305.7400766607991 375.86071968953127 321.8300766607991 C 372.93071968953126 337.7700766607991 370.99071968953126 353.9000766607991 373.68071968953126 371.5000766607991 C 376.40071968953123 389.1700766607991 383.68071968953126 409.28007666079907 391.56071968953125 426.7000766607991 C 399.3507196895313 443.9400766607991 414.8407196895312 467.53007666079907 419.73071968953127 474.3800766607991 C 424.38071968953125 481.0000766607991 423.14071968953124 473.8700766607991 419.73071968953127 466.8600766607991 C 416.11071968953127 459.6500766607991 405.33071968953124 444.6100766607991 399.17071968953127 432.2300766607991 C 392.95071968953124 419.7600766607991 387.12071968953126 406.7100766607991 383.44071968953125 393.09007666079907 C 379.7207196895313 379.3500766607991 377.43071968953126 364.1000766607991 377.49071968953126 350.9400766607991 C 377.55071968953126 337.6500766607991 381.11071968953127 325.84007666079907 383.98071968953127 314.8200766607991 C 386.82071968953124 303.8900766607991 391.65071968953123 294.5000766607991 394.2807196895312 285.7200766607991 C 396.69071968953125 276.9000766607991 398.20071968953124 269.4700766607991 399.17071968953127 262.1300766607991 C 400.20071968953124 254.5800766607991 400.5907196895312 245.0100766607991 400.23071968953127 241.5700766607991 C 399.62071968953126 238.1900766607991 398.05071968953126 236.2500766607991 396.45071968953124 242.0500766607991 z" id="imagebot_12"/>
  <path stroke="black" stroke-width="0.036" stroke-miterlimit="10" fill-rule="evenodd" d="M 411.06071968953125 232.5400766607991 C 410.1007196895313 239.5800766607991 411.67071968953127 261.7700766607991 410.52071968953123 280.7000766607991 C 409.19071968953125 299.5500766607991 401.64071968953124 323.8200766607991 403.48071968953127 344.9300766607991 C 405.36071968953127 365.9200766607991 417.26071968953124 385.4000766607991 421.36071968953127 406.1400766607991 C 425.38071968953125 426.8200766607991 425.50071968953125 457.1100766607991 427.31071968953125 468.34007666079907 C 428.9707196895313 479.3600766607991 431.36071968953127 479.8500766607991 431.6607196895313 472.3600766607991 C 431.81071968953125 464.6600766607991 430.7807196895312 437.2100766607991 428.94071968953125 423.2000766607991 C 427.07071968953124 409.1300766607991 424.32071968953124 402.0600766607991 420.82071968953124 389.0800766607991 C 417.13071968953125 376.03007666079907 409.50071968953125 360.4800766607991 407.80071968953126 345.9300766607991 C 406.20071968953124 331.3100766607991 409.86071968953127 312.9500766607991 411.06071968953125 302.2600766607991 C 412.12071968953126 291.5400766607991 413.36071968953127 292.78007666079907 414.33071968953124 282.2200766607991 C 415.2907196895313 271.5200766607991 416.86071968953127 247.4000766607991 416.4707196895313 239.0600766607991 C 415.8407196895312 230.67007666079908 412.0907196895312 225.6200766607991 411.06071968953125 232.5400766607991 z" id="imagebot_11"/>
  <path fill-rule="evenodd" stroke="black" stroke-width="0.036" stroke-miterlimit="10" fill="#bf5f00" d="M 32.977719689531256 205.82977875009743 C 40.949719689531264 206.83074121327982 48.01571968953124 206.83074121327982 54.62871968953124 205.82977875009743 C 61.211719689531265 204.7558294406414 66.79771968953125 202.71219774497743 71.96171968953126 199.56333666288296 C 74.34671968953126 223.1693680862667 77.48771968953125 244.07488619752306 81.71471968953125 263.37469369075774 C 85.91171968953125 282.5806609530691 92.64571968953125 300.4728649824536 96.90371968953126 314.1318319279627 C 101.04071968953126 327.7386654118479 105.96071968953125 332.9937183435552 106.66071968953125 344.48393328550253 C 107.26071968953126 355.8803079965266 105.69071968953125 367.7875906314666 100.68071968953126 382.14514596273847 C 95.42371968953125 396.44014114006137 85.27771968953124 414.8536797856867 76.30871968953124 429.74299642552415 C 67.30971968953125 444.61145968071196 56.49971968953125 459.6258966284473 47.59171968953126 470.55307018485456 C 38.532719689531234 481.41768358731287 30.017719689531248 489.3419697541733 23.223719689531265 494.0965414542894 C 16.398719689531248 498.6008725386099 10.661719689531253 500.8426113884455 7.521719689531267 497.9127108451721 C 4.411719689531253 494.857689994001 4.471719689531255 485.1921462088965 4.803719689531249 476.43372465605086 C 5.0447196895312345 467.65444971855567 8.548719689531254 458.3017067031956 9.151719689531262 445.5811420669199 C 9.634719689531266 432.7041770457719 8.578719689531255 415.3854410942523 8.064719689531245 400.05820337677267 C 7.490719689531261 384.6579788130191 4.74271968953127 372.46917548530905 5.890719689531238 354.0243567627093 C 7.037719689531258 335.3814308859381 11.32571968953124 307.8966699177227 14.556719689531235 289.6708117339441 C 17.606719689531246 271.50751370411433 21.169719689531235 259.7253513770721 24.30971968953125 245.7118768925192 C 27.420719689531268 231.5524287154189 30.19871968953126 218.58162346334763 32.977719689531256 205.82977875009743 z" id="imagebot_8"/>
  <path stroke="black" stroke-width="0.036" stroke-miterlimit="10" fill-rule="evenodd" d="M 38.38171968953125 237.1600766607991 C 36.66071968953125 247.8200766607991 35.45271968953125 281.4000766607991 32.43371968953125 301.9000766607991 C 29.292719689531253 322.2200766607991 23.102719689531252 338.2900766607991 20.50571968953125 358.6100766607991 C 17.96871968953125 378.9600766607991 17.123719689531253 404.5700766607991 17.274719689531253 422.84007666079907 C 17.39571968953125 440.8000766607991 21.411719689531253 454.1800766607991 21.04871968953125 466.4700766607991 C 20.50571968953125 478.7300766607991 15.039719689531251 491.6000766607991 14.556719689531253 496.09007666079907 C 14.073719689531252 500.3800766607991 16.730719689531252 496.2200766607991 18.33171968953125 492.5600766607991 C 19.90171968953125 488.7000766607991 22.920719689531253 481.3000766607991 23.766719689531254 473.9900766607991 C 24.431719689531253 466.6500766607991 23.373719689531253 459.8600766607991 22.67971968953125 449.4100766607991 C 21.89471968953125 438.9000766607991 19.02571968953125 427.8800766607991 19.41871968953125 411.7900766607991 C 19.72071968953125 395.5100766607991 22.196719689531253 370.09007666079907 24.853719689531253 353.0800766607991 C 27.510719689531253 336.0800766607991 32.61471968953125 323.0700766607991 35.15071968953125 310.4200766607991 C 37.566719689531254 297.7400766607991 38.23071968953125 289.1900766607991 39.468719689531255 277.3200766607991 C 40.676719689531254 265.3000766607991 42.246719689531254 245.95007666079908 42.18671968953125 239.1800766607991 C 41.94571968953125 232.5100766607991 39.98271968953125 226.5900766607991 38.38171968953125 237.1600766607991 z" id="imagebot_7"/>
  <path stroke="black" stroke-width="0.036" stroke-miterlimit="10" fill-rule="evenodd" d="M 56.801719689531254 237.67007666079908 C 55.11071968953125 246.2800766607991 50.91371968953125 271.5500766607991 52.48371968953125 287.8600766607991 C 54.023719689531255 304.0800766607991 62.840719689531255 320.1700766607991 66.01171968953125 334.5100766607991 C 69.12171968953125 348.7600766607991 72.77571968953126 358.34007666079907 70.90371968953126 373.1300766607991 C 68.85071968953125 387.84007666079907 59.94271968953125 404.78007666079907 54.084719689531255 422.3200766607991 C 48.10571968953125 439.9000766607991 38.04971968953125 468.5800766607991 35.694719689531254 477.5200766607991 C 33.36971968953125 486.1900766607991 36.75171968953125 481.5700766607991 40.01271968953125 474.5000766607991 C 43.273719689531255 467.1600766607991 48.648719689531255 451.4600766607991 54.627719689531254 434.8500766607991 C 60.48571968953125 418.1000766607991 71.74871968953126 391.8800766607991 74.67771968953126 375.6700766607991 C 77.45571968953125 359.4200766607991 74.34471968953125 352.2100766607991 71.41671968953125 338.53007666079907 C 68.30671968953125 324.8500766607991 59.12671968953125 307.8500766607991 56.801719689531254 294.3800766607991 C 54.50671968953125 280.8200766607991 56.92271968953125 267.9600766607991 57.88871968953125 258.2400766607991 C 58.825719689531255 248.45007666079908 62.29771968953125 240.1800766607991 62.237719689531254 236.67007666079908 C 61.99571968953125 233.23007666079909 58.40271968953125 229.0700766607991 56.801719689531254 237.67007666079908 z" id="imagebot_6"/>
  <title>imagebot_2</title>
  <g transform="translate(-6.25 -9.375) matrix(0.722584 0 0 0.722584 8.99775 223.423)" id="imagebot_142">

   <metadata stroke="#000000" fill="#007fff" id="imagebot_114">image/svg+xml</metadata>
   <g transform="matrix(0.306713 0 0 0.306713 23.535 -47.0111)" id="imagebot_52" label="Layer 1">
    <path fill="#007fff" stroke="#000000" d="M380.16017,173.80553C384.27037,180.34398 390.58167,188.43835 390.21933,195.27316L374.77907,196.23149L379.98171,174.5724" id="imagebot_113"/>
    <path fill="#007fff" stroke="#000000" id="imagebot_112" d="M-41.74005,171.36592C-46.27748,177.90437 -53.2648,185.9982 -52.85919,192.83355L-35.79649,193.79187L-41.55076,172.13225"/>
    <path fill="#007fff" stroke="#000000" d="M149.7137,302.71732C148.56718,303.90819 147.07453,304.96549 146.64729,305.49927C118.67636,340.4732 173.96923,491.56867 36.91601,528.83025C50.74464,516.8074 98.68785,481.89242 95.29154,451.14386C80.81393,456.15127 67.72622,481.04334 31.8594,471.525C132.87815,436.56891 75.59507,291.2672 142.76423,290.56359C143.25097,290.55859 148.04799,287.30195 150.79533,287.4047" id="imagebot_111"/>
    <path fill="#007fff" stroke="#000000" stroke-width="1.84008" stroke-miterlimit="4" id="imagebot_110" d="M149.7137,302.71732C148.56718,303.90819 147.07453,304.96549 146.64729,305.49927C118.67636,340.4732 164.386,485.81819 42.67028,525.76329C56.4935,513.74044 99.83438,479.20889 96.44347,448.45981C80.04598,451.16766 70.40866,477.97638 32.62736,471.525C133.6461,436.56891 75.59507,291.2672 142.76423,290.56359C143.25097,290.55859 148.04799,287.30195 150.79533,287.4047"/>
    <path fill="#007fff" stroke="#000000" id="imagebot_109" d="M133.06744,312.8219C66.47694,390.00478 57.4886,480.44465 -54.53031,483.03083C-37.15935,477.22519 0.17849,464.71074 8.83152,435.01029C6.00847,441.13339 -30.80478,446.09591 -60.27917,423.55583C76.51446,432.97682 78.48843,266.44489 140.80108,291.54626"/>
    <path fill="#007fff" stroke="#000000" stroke-width="1.84008" stroke-miterlimit="4" d="M148.35084,301.78388C71.45243,366.57941 56.26636,480.79673 -49.65757,481.04388C-31.89722,473.70503 1.67114,462.27113 10.31876,433.24832C7.50112,439.37088 -27.67887,441.89485 -57.43448,423.82625C77.32567,431.62101 83.85331,260.59923 148.46442,286.08295" id="imagebot_108"/>
    <path opacity="0.46087" fill="#007fff" stroke="#000000" d="M149.7137,302.71732C148.56718,303.90819 147.07453,304.96549 146.64729,305.49927C118.67636,340.4732 164.386,485.81819 42.67028,525.76329C56.4935,513.74044 99.83438,479.20889 96.44347,448.45981C80.04598,451.16766 70.40866,477.97638 32.62736,471.525C133.6461,436.56891 75.59507,291.2672 142.76423,290.56359C143.25097,290.55859 148.04799,287.30195 150.79533,287.4047" id="imagebot_106"/>
    <path fill="#007fff" stroke="#000000" id="imagebot_104" d="M148.35084,301.78388C71.45243,366.57941 56.26636,480.79673 -49.65757,481.04388C-31.89722,473.70503 1.67114,462.27113 10.31876,433.24832C7.50112,439.37088 -27.67887,441.89485 -57.43448,423.82625C77.32567,431.62101 83.85331,260.59923 148.46442,286.08295"/>
    <path fill="#007fff" stroke="#000000" d="M160.29744,273.22508C73.85365,284.41345 -54.06521,349.72493 -60.42519,256.4025C-44.31432,229.03134 -41.46964,220.42157 -44.64963,191.56263C-35.06099,262.25737 91.37064,229.73116 168.74496,254.56157" id="imagebot_103"/>
    <path fill="#007fff" stroke="#000000" d="M165.59742,235.85912C-29.70151,46.66328 -185.25599,240.19106 160.56243,251.46325" id="imagebot_102"/>
    <path fill="#007fff" stroke="#000000" id="imagebot_101" d="M160.29744,273.22508C73.49671,282.86239 -55.99591,341.24279 -60.42519,256.4025C-44.31432,229.03134 -42.41065,221.31933 -45.59605,192.4593C-36.00741,263.15458 91.36522,229.73062 168.73956,254.56104"/>
    <path opacity="0.28261" fill="#007fff" stroke="#000000" d="M160.29744,273.22508C73.49671,282.86239 -55.99591,341.24279 -60.42519,256.4025C-44.31432,229.03134 -39.73903,222.16678 -42.92443,193.30784C-33.33038,264.00311 91.37064,229.73116 168.74496,254.56157" id="imagebot_99"/>
    <path opacity="0.43913" fill="#007fff" stroke="#000000" id="imagebot_97" d="M159.62142,274.4192C72.8261,284.05652 -56.66653,342.43691 -61.0958,257.59663C-44.98493,230.22546 -40.10679,222.53509 -43.29218,193.67614C-33.69813,264.37087 90.69461,230.92528 168.07436,255.75516"/>
    <path fill="#007fff" stroke="#000000" id="imagebot_95" d="M165.59742,235.85912C-29.70151,46.66328 -185.25599,240.19106 160.56243,251.46325"/>
    <path fill="#007fff" stroke="#000000" id="imagebot_94" d="M163.08804,294.30171C71.96621,318.28791 -55.91479,406.77057 -76.05473,306.21368C-62.68038,274.26129 -68.6672,246.12054 -76.21697,215.19028C-55.83908,290.71287 82.93392,256.46091 169.47507,272.86166"/>
    <path fill="#007fff" stroke="#000000" id="imagebot_93" d="M165.3865,253.80335C-97.53047,78.2674 -209.71162,306.43272 164.3914,271.17378"/>
    <path fill="#007fff" stroke="#000000" d="M163.08804,294.30171C71.3659,316.64979 -59.19213,397.81577 -76.05473,306.21368C-62.68038,274.26129 -68.8673,246.5175 -76.37921,215.58778C-55.99591,291.10983 82.97178,256.46091 169.51292,272.86166" id="imagebot_92"/>
    <path opacity="0.28261" fill="#007fff" stroke="#000000" id="imagebot_90" d="M163.08804,294.30171C71.3659,316.64979 -59.19213,397.81577 -76.05473,306.21368C-62.68038,274.26129 -68.92138,247.46068 -76.4333,216.53042C-56.05,292.053 82.96638,256.46091 169.50751,272.86166"/>
    <path opacity="0.43913" fill="#007fff" stroke="#000000" d="M162.53641,295.6916C70.81427,318.03969 -59.74376,399.20566 -76.60095,307.60305C-63.23201,275.65118 -68.97546,251.28748 -76.49279,220.35722C-56.1149,295.8798 82.40933,257.85027 168.94507,274.25101" id="imagebot_88"/>
    <path fill="#007fff" stroke="#000000" d="M165.3865,253.80335C-97.53047,78.2674 -209.71162,306.43272 164.3914,271.17378" id="imagebot_86"/>
    <path fill="#007fff" stroke="#000000" stroke-width="1.2751" stroke-miterlimit="4" d="M147.49096,246.85713C33.40613,156.19823 -80.04594,182.71977 -75.98983,221.23118C-73.19923,247.7538 -12.67667,282.24912 146.69054,271.47393" id="imagebot_85"/>
    <path fill="#007fff" stroke="#000000" id="imagebot_84" d="M187.4896,272.91898C270.36401,283.72122 392.98829,346.77964 399.08327,256.6767C383.64302,230.2498 380.9119,221.93695 383.96211,194.07363C374.76826,262.32984 253.56631,230.92581 179.39361,254.89904"/>
    <path fill="#007fff" stroke="#000000" id="imagebot_83" d="M182.41135,236.84179C369.63051,54.17249 518.7493,241.02445 187.23541,251.9078"/>
    <path fill="#007fff" stroke="#000000" d="M187.4896,272.91898C270.69931,282.2237 394.83247,338.5901 399.08327,256.6767C383.64302,230.2498 381.80966,222.80386 384.86526,194.93948C375.67141,263.19568 253.57172,230.92528 179.39361,254.89904" id="imagebot_82"/>
    <path opacity="0.28261" fill="#007fff" stroke="#000000" id="imagebot_80" d="M187.4896,272.91898C270.69931,282.2237 394.83247,338.5901 399.08327,256.6767C383.64302,230.2498 379.25702,223.62212 382.3018,195.75827C373.10795,264.01448 253.56631,230.92581 179.38819,254.89904"/>
    <path opacity="0.43913" fill="#007fff" stroke="#000000" d="M188.13858,274.072C271.34289,283.37671 395.47604,339.74311 399.72684,257.82971C384.28118,231.40282 379.60854,223.97798 382.65874,196.11359C373.4649,264.36978 254.21529,232.07775 180.03717,256.05152" id="imagebot_78"/>
    <path fill="#007fff" stroke="#000000" d="M182.41135,236.84179C369.63051,54.17249 518.7493,241.02445 187.23541,251.9078" id="imagebot_76"/>
    <path fill="#007fff" stroke="#000000" d="M195.7965,296.21186C197.1864,297.40274 199.10089,298.37566 199.51731,298.99381C228.05609,341.63488 191.94591,629.5456 319.37262,560.27429C302.6236,553.13013 270.79666,553.45462 274.90686,522.70607C292.45629,527.71401 302.15308,519.9571 311.70928,511.97198C215.74174,455.16482 269.45003,290.41704 205.53657,282.97381C204.41709,282.84401 197.16476,280.86355 195.96956,280.83164" id="imagebot_75"/>
    <path fill="#007fff" stroke="#000000" stroke-width="1.84008" stroke-miterlimit="4" id="imagebot_74" d="M195.7965,296.21186C197.1864,297.40274 198.99813,298.45949 199.51731,298.99381C233.42098,333.96774 192.53539,620.66326 319.37262,560.27429C300.45493,555.29879 267.15157,552.59202 271.45646,518.77651C286.13416,520.1426 294.96026,524.46155 310.08143,511.49282C214.11389,454.6862 269.45003,290.41704 205.53657,282.97381C204.41709,282.84401 197.16476,280.86355 195.96956,280.83164"/>
    <path opacity="0.53478" fill="#007fff" stroke="#000000" d="M195.7965,296.21186C197.1864,297.40274 198.99813,298.45949 199.51731,298.99381C233.42098,333.96774 192.53539,620.66326 319.37262,560.27429C300.45493,555.29879 267.15157,552.59202 271.45646,518.77651C286.13416,520.1426 294.96026,524.46155 310.08143,511.49282C214.11389,454.6862 269.45003,290.41704 205.53657,282.97381C204.41709,282.84401 197.16476,280.86355 195.96956,280.83164" id="imagebot_72"/>
    <path fill="#007fff" stroke="#000000" d="M220.31163,295.98851C228.34813,284.47836 235.70321,305.92381 238.69391,315.47081C246.93052,351.9785 271.13738,562.90319 421.01871,535.18104C409.54262,529.03792 358.40321,532.69274 343.31989,495.35437C366.1693,507.36586 390.24636,500.20927 397.59063,490.15498C279.35775,456.83486 289.89282,277.46616 226.16324,285.67194C225.04375,285.81254 215.22797,284.82772 214.05981,285.08569" id="imagebot_71"/>
    <path fill="#007fff" stroke="#000000" stroke-width="1.84008" stroke-miterlimit="4" id="imagebot_70" d="M198.42486,294.76843C273.12758,269.72114 227.67752,551.35193 419.4882,534.79814C408.00672,528.65448 358.94943,524.83147 339.79378,491.83042C362.64319,503.84192 389.02412,499.26068 396.36838,489.20639C263.93373,445.61945 300.92003,259.57114 199.21987,279.39361"/>
    <path opacity="0.41739" fill="#007fff" stroke="#000000" d="M198.42486,294.76843C273.12758,269.72114 227.67752,551.35193 419.4882,534.79814C408.00672,528.65448 358.94943,524.83147 339.79378,491.83042C362.64319,503.84192 389.02412,499.26068 396.36838,489.20639C263.93373,445.61945 300.92003,259.57114 199.21987,279.39361" id="imagebot_68"/>
    <path fill="#007fff" stroke="#000000" d="M184.82338,293.26875C272.16493,316.42697 394.75676,401.85728 414.05843,304.76918C401.24112,273.91949 406.98457,246.74951 414.22067,216.88628C394.69727,289.80376 261.66231,256.7324 178.70677,272.568" id="imagebot_67"/>
    <path fill="#007fff" stroke="#000000" d="M182.61145,254.16679C434.65264,84.68687 542.1882,304.98063 183.5741,270.93852" id="imagebot_66"/>
    <path fill="#007fff" stroke="#000000" id="imagebot_65" d="M184.82338,293.26875C272.7436,314.84563 397.9043,393.21127 414.05843,304.76918C401.24112,273.91949 407.17386,247.13295 414.38292,217.26971C394.8541,290.18665 261.63527,256.7324 178.67431,272.568"/>
    <path opacity="0.28261" fill="#007fff" stroke="#000000" d="M184.82338,293.26875C272.7436,314.84563 397.9043,393.21127 414.05843,304.76918C401.24112,273.91949 407.22253,248.04314 414.437,218.1799C394.90818,291.09738 261.64067,256.7324 178.67972,272.568" id="imagebot_63"/>
    <path opacity="0.43913" fill="#007fff" stroke="#000000" id="imagebot_61" d="M185.34796,294.61051C273.26818,316.18738 398.42889,394.55358 414.58843,306.11093C401.77112,275.26126 407.27661,251.73798 414.48031,221.87474C394.9515,294.79223 262.15449,258.0747 179.19896,273.90921"/>
    <path fill="#007fff" stroke="#000000" id="imagebot_59" d="M182.61145,254.16679C434.65264,84.68687 542.1882,304.98063 183.5741,270.93852"/>
    <path fill="#007fff" stroke="#000000" stroke-width="1.22672" stroke-miterlimit="4" id="imagebot_58" d="M199.77149,247.46068C309.1296,159.92931 417.8928,185.5358 414.00435,222.71842C411.32731,248.32598 353.30874,281.6315 200.53945,271.2284"/>
    <path fill="#007fff" stroke="#000000" stroke-width="1.84008" stroke-miterlimit="4" d="M200.9018,277.45046C208.70575,228.68198 194.17946,228.50784 177.07351,229.63489C160.08112,230.74681 152.6341,231.87117 149.16748,267.3951C144.83555,303.08183 156.31163,310.76302 173.30943,311.58939C199.15496,312.8603 197.14314,311.07561 200.9018,277.45046z" id="imagebot_57"/>
    <path opacity="0.85652" fill="#007fff" stroke="#000000" id="imagebot_55" d="M200.9018,277.45046C208.70575,228.68198 194.17946,228.50784 177.07351,229.63489C160.08112,230.74681 152.6341,231.87117 149.16748,267.3951C144.83555,303.08183 156.31163,310.76302 173.30943,311.58939C199.15496,312.8603 197.14314,311.07561 200.9018,277.45046z"/>
    <path opacity="0.72609" fill="#007fff" stroke="#000000" d="M200.9018,277.45046C208.70575,228.68198 194.17946,228.50784 177.07351,229.63489C160.08112,230.74681 152.6341,231.87117 149.16748,267.3951C144.83555,303.08183 156.31163,310.76302 173.30943,311.58939C199.15496,312.8603 197.14314,311.07561 200.9018,277.45046z" id="imagebot_53"/>
   </g>
  </g>
  <g id="imagebot_145" transform="translate(9.375 -10.9375) matrix(-0.722584 0 0 0.722584 438.57 198.423)">

   <metadata id="imagebot_147" stroke="#000000" fill="#007fff">image/svg+xml</metadata>
   <g id="imagebot_148" transform="matrix(0.306713 0 0 0.306713 23.535 -47.0111)" label="Layer 1">
    <path id="imagebot_149" fill="#007fff" stroke="#000000" d="M380.16017,173.80553C384.27037,180.34398 390.58167,188.43835 390.21933,195.27316L374.77907,196.23149L379.98171,174.5724"/>
    <path id="imagebot_150" fill="#007fff" stroke="#000000" d="M-41.74005,171.36592C-46.27748,177.90437 -53.2648,185.9982 -52.85919,192.83355L-35.79649,193.79187L-41.55076,172.13225"/>
    <path id="imagebot_151" fill="#007fff" stroke="#000000" d="M149.7137,302.71732C148.56718,303.90819 147.07453,304.96549 146.64729,305.49927C118.67636,340.4732 173.96923,491.56867 36.91601,528.83025C50.74464,516.8074 98.68785,481.89242 95.29154,451.14386C80.81393,456.15127 67.72622,481.04334 31.8594,471.525C132.87815,436.56891 75.59507,291.2672 142.76423,290.56359C143.25097,290.55859 148.04799,287.30195 150.79533,287.4047"/>
    <path id="imagebot_152" fill="#007fff" stroke="#000000" stroke-width="1.84008" stroke-miterlimit="4" d="M149.7137,302.71732C148.56718,303.90819 147.07453,304.96549 146.64729,305.49927C118.67636,340.4732 164.386,485.81819 42.67028,525.76329C56.4935,513.74044 99.83438,479.20889 96.44347,448.45981C80.04598,451.16766 70.40866,477.97638 32.62736,471.525C133.6461,436.56891 75.59507,291.2672 142.76423,290.56359C143.25097,290.55859 148.04799,287.30195 150.79533,287.4047"/>
    <path id="imagebot_153" fill="#007fff" stroke="#000000" d="M133.06744,312.8219C66.47694,390.00478 57.4886,480.44465 -54.53031,483.03083C-37.15935,477.22519 0.17849,464.71074 8.83152,435.01029C6.00847,441.13339 -30.80478,446.09591 -60.27917,423.55583C76.51446,432.97682 78.48843,266.44489 140.80108,291.54626"/>
    <path id="imagebot_154" fill="#007fff" stroke="#000000" stroke-width="1.84008" stroke-miterlimit="4" d="M148.35084,301.78388C71.45243,366.57941 56.26636,480.79673 -49.65757,481.04388C-31.89722,473.70503 1.67114,462.27113 10.31876,433.24832C7.50112,439.37088 -27.67887,441.89485 -57.43448,423.82625C77.32567,431.62101 83.85331,260.59923 148.46442,286.08295"/>
    <path id="imagebot_155" opacity="0.46087" fill="#007fff" stroke="#000000" d="M149.7137,302.71732C148.56718,303.90819 147.07453,304.96549 146.64729,305.49927C118.67636,340.4732 164.386,485.81819 42.67028,525.76329C56.4935,513.74044 99.83438,479.20889 96.44347,448.45981C80.04598,451.16766 70.40866,477.97638 32.62736,471.525C133.6461,436.56891 75.59507,291.2672 142.76423,290.56359C143.25097,290.55859 148.04799,287.30195 150.79533,287.4047"/>
    <path id="imagebot_156" fill="#007fff" stroke="#000000" d="M148.35084,301.78388C71.45243,366.57941 56.26636,480.79673 -49.65757,481.04388C-31.89722,473.70503 1.67114,462.27113 10.31876,433.24832C7.50112,439.37088 -27.67887,441.89485 -57.43448,423.82625C77.32567,431.62101 83.85331,260.59923 148.46442,286.08295"/>
    <path id="imagebot_157" fill="#007fff" stroke="#000000" d="M160.29744,273.22508C73.85365,284.41345 -54.06521,349.72493 -60.42519,256.4025C-44.31432,229.03134 -41.46964,220.42157 -44.64963,191.56263C-35.06099,262.25737 91.37064,229.73116 168.74496,254.56157"/>
    <path id="imagebot_158" fill="#007fff" stroke="#000000" d="M165.59742,235.85912C-29.70151,46.66328 -185.25599,240.19106 160.56243,251.46325"/>
    <path id="imagebot_159" fill="#007fff" stroke="#000000" d="M160.29744,273.22508C73.49671,282.86239 -55.99591,341.24279 -60.42519,256.4025C-44.31432,229.03134 -42.41065,221.31933 -45.59605,192.4593C-36.00741,263.15458 91.36522,229.73062 168.73956,254.56104"/>
    <path id="imagebot_160" opacity="0.28261" fill="#007fff" stroke="#000000" d="M160.29744,273.22508C73.49671,282.86239 -55.99591,341.24279 -60.42519,256.4025C-44.31432,229.03134 -39.73903,222.16678 -42.92443,193.30784C-33.33038,264.00311 91.37064,229.73116 168.74496,254.56157"/>
    <path id="imagebot_161" opacity="0.43913" fill="#007fff" stroke="#000000" d="M159.62142,274.4192C72.8261,284.05652 -56.66653,342.43691 -61.0958,257.59663C-44.98493,230.22546 -40.10679,222.53509 -43.29218,193.67614C-33.69813,264.37087 90.69461,230.92528 168.07436,255.75516"/>
    <path id="imagebot_162" fill="#007fff" stroke="#000000" d="M165.59742,235.85912C-29.70151,46.66328 -185.25599,240.19106 160.56243,251.46325"/>
    <path id="imagebot_163" fill="#007fff" stroke="#000000" d="M163.08804,294.30171C71.96621,318.28791 -55.91479,406.77057 -76.05473,306.21368C-62.68038,274.26129 -68.6672,246.12054 -76.21697,215.19028C-55.83908,290.71287 82.93392,256.46091 169.47507,272.86166"/>
    <path id="imagebot_164" fill="#007fff" stroke="#000000" d="M165.3865,253.80335C-97.53047,78.2674 -209.71162,306.43272 164.3914,271.17378"/>
    <path id="imagebot_165" fill="#007fff" stroke="#000000" d="M163.08804,294.30171C71.3659,316.64979 -59.19213,397.81577 -76.05473,306.21368C-62.68038,274.26129 -68.8673,246.5175 -76.37921,215.58778C-55.99591,291.10983 82.97178,256.46091 169.51292,272.86166"/>
    <path id="imagebot_166" opacity="0.28261" fill="#007fff" stroke="#000000" d="M163.08804,294.30171C71.3659,316.64979 -59.19213,397.81577 -76.05473,306.21368C-62.68038,274.26129 -68.92138,247.46068 -76.4333,216.53042C-56.05,292.053 82.96638,256.46091 169.50751,272.86166"/>
    <path id="imagebot_167" opacity="0.43913" fill="#007fff" stroke="#000000" d="M162.53641,295.6916C70.81427,318.03969 -59.74376,399.20566 -76.60095,307.60305C-63.23201,275.65118 -68.97546,251.28748 -76.49279,220.35722C-56.1149,295.8798 82.40933,257.85027 168.94507,274.25101"/>
    <path id="imagebot_168" fill="#007fff" stroke="#000000" d="M165.3865,253.80335C-97.53047,78.2674 -209.71162,306.43272 164.3914,271.17378"/>
    <path id="imagebot_169" fill="#007fff" stroke="#000000" stroke-width="1.2751" stroke-miterlimit="4" d="M147.49096,246.85713C33.40613,156.19823 -80.04594,182.71977 -75.98983,221.23118C-73.19923,247.7538 -12.67667,282.24912 146.69054,271.47393"/>
    <path id="imagebot_170" fill="#007fff" stroke="#000000" d="M187.4896,272.91898C270.36401,283.72122 392.98829,346.77964 399.08327,256.6767C383.64302,230.2498 380.9119,221.93695 383.96211,194.07363C374.76826,262.32984 253.56631,230.92581 179.39361,254.89904"/>
    <path id="imagebot_171" fill="#007fff" stroke="#000000" d="M182.41135,236.84179C369.63051,54.17249 518.7493,241.02445 187.23541,251.9078"/>
    <path id="imagebot_172" fill="#007fff" stroke="#000000" d="M187.4896,272.91898C270.69931,282.2237 394.83247,338.5901 399.08327,256.6767C383.64302,230.2498 381.80966,222.80386 384.86526,194.93948C375.67141,263.19568 253.57172,230.92528 179.39361,254.89904"/>
    <path id="imagebot_173" opacity="0.28261" fill="#007fff" stroke="#000000" d="M187.4896,272.91898C270.69931,282.2237 394.83247,338.5901 399.08327,256.6767C383.64302,230.2498 379.25702,223.62212 382.3018,195.75827C373.10795,264.01448 253.56631,230.92581 179.38819,254.89904"/>
    <path id="imagebot_174" opacity="0.43913" fill="#007fff" stroke="#000000" d="M188.13858,274.072C271.34289,283.37671 395.47604,339.74311 399.72684,257.82971C384.28118,231.40282 379.60854,223.97798 382.65874,196.11359C373.4649,264.36978 254.21529,232.07775 180.03717,256.05152"/>
    <path id="imagebot_175" fill="#007fff" stroke="#000000" d="M182.41135,236.84179C369.63051,54.17249 518.7493,241.02445 187.23541,251.9078"/>
    <path id="imagebot_176" fill="#007fff" stroke="#000000" d="M195.7965,296.21186C197.1864,297.40274 199.10089,298.37566 199.51731,298.99381C228.05609,341.63488 191.94591,629.5456 319.37262,560.27429C302.6236,553.13013 270.79666,553.45462 274.90686,522.70607C292.45629,527.71401 302.15308,519.9571 311.70928,511.97198C215.74174,455.16482 269.45003,290.41704 205.53657,282.97381C204.41709,282.84401 197.16476,280.86355 195.96956,280.83164"/>
    <path id="imagebot_177" fill="#007fff" stroke="#000000" stroke-width="1.84008" stroke-miterlimit="4" d="M195.7965,296.21186C197.1864,297.40274 198.99813,298.45949 199.51731,298.99381C233.42098,333.96774 192.53539,620.66326 319.37262,560.27429C300.45493,555.29879 267.15157,552.59202 271.45646,518.77651C286.13416,520.1426 294.96026,524.46155 310.08143,511.49282C214.11389,454.6862 269.45003,290.41704 205.53657,282.97381C204.41709,282.84401 197.16476,280.86355 195.96956,280.83164"/>
    <path id="imagebot_178" opacity="0.53478" fill="#007fff" stroke="#000000" d="M195.7965,296.21186C197.1864,297.40274 198.99813,298.45949 199.51731,298.99381C233.42098,333.96774 192.53539,620.66326 319.37262,560.27429C300.45493,555.29879 267.15157,552.59202 271.45646,518.77651C286.13416,520.1426 294.96026,524.46155 310.08143,511.49282C214.11389,454.6862 269.45003,290.41704 205.53657,282.97381C204.41709,282.84401 197.16476,280.86355 195.96956,280.83164"/>
    <path id="imagebot_179" fill="#007fff" stroke="#000000" d="M220.31163,295.98851C228.34813,284.47836 235.70321,305.92381 238.69391,315.47081C246.93052,351.9785 271.13738,562.90319 421.01871,535.18104C409.54262,529.03792 358.40321,532.69274 343.31989,495.35437C366.1693,507.36586 390.24636,500.20927 397.59063,490.15498C279.35775,456.83486 289.89282,277.46616 226.16324,285.67194C225.04375,285.81254 215.22797,284.82772 214.05981,285.08569"/>
    <path id="imagebot_180" fill="#007fff" stroke="#000000" stroke-width="1.84008" stroke-miterlimit="4" d="M198.42486,294.76843C273.12758,269.72114 227.67752,551.35193 419.4882,534.79814C408.00672,528.65448 358.94943,524.83147 339.79378,491.83042C362.64319,503.84192 389.02412,499.26068 396.36838,489.20639C263.93373,445.61945 300.92003,259.57114 199.21987,279.39361"/>
    <path id="imagebot_181" opacity="0.41739" fill="#007fff" stroke="#000000" d="M198.42486,294.76843C273.12758,269.72114 227.67752,551.35193 419.4882,534.79814C408.00672,528.65448 358.94943,524.83147 339.79378,491.83042C362.64319,503.84192 389.02412,499.26068 396.36838,489.20639C263.93373,445.61945 300.92003,259.57114 199.21987,279.39361"/>
    <path id="imagebot_182" fill="#007fff" stroke="#000000" d="M184.82338,293.26875C272.16493,316.42697 394.75676,401.85728 414.05843,304.76918C401.24112,273.91949 406.98457,246.74951 414.22067,216.88628C394.69727,289.80376 261.66231,256.7324 178.70677,272.568"/>
    <path id="imagebot_183" fill="#007fff" stroke="#000000" d="M182.61145,254.16679C434.65264,84.68687 542.1882,304.98063 183.5741,270.93852"/>
    <path id="imagebot_184" fill="#007fff" stroke="#000000" d="M184.82338,293.26875C272.7436,314.84563 397.9043,393.21127 414.05843,304.76918C401.24112,273.91949 407.17386,247.13295 414.38292,217.26971C394.8541,290.18665 261.63527,256.7324 178.67431,272.568"/>
    <path id="imagebot_185" opacity="0.28261" fill="#007fff" stroke="#000000" d="M184.82338,293.26875C272.7436,314.84563 397.9043,393.21127 414.05843,304.76918C401.24112,273.91949 407.22253,248.04314 414.437,218.1799C394.90818,291.09738 261.64067,256.7324 178.67972,272.568"/>
    <path id="imagebot_186" opacity="0.43913" fill="#007fff" stroke="#000000" d="M185.34796,294.61051C273.26818,316.18738 398.42889,394.55358 414.58843,306.11093C401.77112,275.26126 407.27661,251.73798 414.48031,221.87474C394.9515,294.79223 262.15449,258.0747 179.19896,273.90921"/>
    <path id="imagebot_187" fill="#007fff" stroke="#000000" d="M182.61145,254.16679C434.65264,84.68687 542.1882,304.98063 183.5741,270.93852"/>
    <path id="imagebot_188" fill="#007fff" stroke="#000000" stroke-width="1.22672" stroke-miterlimit="4" d="M199.77149,247.46068C309.1296,159.92931 417.8928,185.5358 414.00435,222.71842C411.32731,248.32598 353.30874,281.6315 200.53945,271.2284"/>
    <path id="imagebot_189" fill="#007fff" stroke="#000000" stroke-width="1.84008" stroke-miterlimit="4" d="M200.9018,277.45046C208.70575,228.68198 194.17946,228.50784 177.07351,229.63489C160.08112,230.74681 152.6341,231.87117 149.16748,267.3951C144.83555,303.08183 156.31163,310.76302 173.30943,311.58939C199.15496,312.8603 197.14314,311.07561 200.9018,277.45046z"/>
    <path id="imagebot_190" opacity="0.85652" fill="#007fff" stroke="#000000" d="M200.9018,277.45046C208.70575,228.68198 194.17946,228.50784 177.07351,229.63489C160.08112,230.74681 152.6341,231.87117 149.16748,267.3951C144.83555,303.08183 156.31163,310.76302 173.30943,311.58939C199.15496,312.8603 197.14314,311.07561 200.9018,277.45046z"/>
    <path id="imagebot_191" opacity="0.72609" fill="#007fff" stroke="#000000" d="M200.9018,277.45046C208.70575,228.68198 194.17946,228.50784 177.07351,229.63489C160.08112,230.74681 152.6341,231.87117 149.16748,267.3951C144.83555,303.08183 156.31163,310.76302 173.30943,311.58939C199.15496,312.8603 197.14314,311.07561 200.9018,277.45046z"/>
   </g>
  </g>
 </g>
 <metadata>image/svg+xmlOpenclipartGirl Face Cartoon2006-11-13T10:17:37Uploaded by "World Label" for conversion to SVG and publication on OCAL.https://openclipart.org/detail/1396/girl-face-cartoon-by-gerald_g-1396Gerald_Gcartoonexternalsourcefacegirlpeopleremixworldlabel</metadata>
</svg>