<?xml version="1.0" encoding="UTF-8" standalone="no"?>
<!-- Created with Inkscape (http://www.inkscape.org/) -->

<svg
   xmlns:dc="http://purl.org/dc/elements/1.1/"
   xmlns:cc="http://creativecommons.org/ns#"
   xmlns:rdf="http://www.w3.org/1999/02/22-rdf-syntax-ns#"
   xmlns:svg="http://www.w3.org/2000/svg"
   xmlns="http://www.w3.org/2000/svg"
   xmlns:sodipodi="http://sodipodi.sourceforge.net/DTD/sodipodi-0.dtd"
   xmlns:inkscape="http://www.inkscape.org/namespaces/inkscape"
   width="760.67877"
   height="722.93677"
   id="svg3008"
   version="1.1"
   inkscape:version="0.48.2 r9819"
   sodipodi:docname="mono.svg">
  <defs
     id="defs3010" />
  <sodipodi:namedview
     id="base"
     pagecolor="#ffffff"
     bordercolor="#666666"
     borderopacity="1.0"
     inkscape:pageopacity="0.0"
     inkscape:pageshadow="2"
     inkscape:zoom="0.35"
     inkscape:cx="434.3957"
     inkscape:cy="254.15827"
     inkscape:document-units="px"
     inkscape:current-layer="layer1"
     showgrid="false"
     inkscape:snap-global="true"
     inkscape:snap-nodes="false"
     inkscape:snap-bbox="true"
     inkscape:bbox-nodes="true"
     inkscape:window-width="1440"
     inkscape:window-height="853"
     inkscape:window-x="-4"
     inkscape:window-y="-4"
     inkscape:window-maximized="1"
     fit-margin-top="0"
     fit-margin-left="0"
     fit-margin-right="0"
     fit-margin-bottom="0" />
  <metadata
     id="metadata3013">
    <rdf:RDF>
      <cc:Work
         rdf:about="">
        <dc:format>image/svg+xml</dc:format>
        <dc:type
           rdf:resource="http://purl.org/dc/dcmitype/StillImage" />
        <dc:title />
      </cc:Work>
    </rdf:RDF>
  </metadata>
  <g
     inkscape:label="Capa 1"
     inkscape:groupmode="layer"
     id="layer1"
     transform="translate(3.9108277,-90.648343)">
    <g
       id="g3004">
      <path
         transform="matrix(0.94101673,-0.33836003,0.33836003,0.94101673,68.472991,39.011657)"
         d="m 40,308.79074 c 0,76.1364 -48.6090833,137.85715 -108.571426,137.85715 -59.962344,0 -108.571424,-61.72075 -108.571424,-137.85715 0,-76.1364 48.60908,-137.85715 108.571424,-137.85715 C -8.6090833,170.93359 40,232.65434 40,308.79074 z"
         sodipodi:ry="137.85715"
         sodipodi:rx="108.57143"
         sodipodi:cy="308.79074"
         sodipodi:cx="-68.571426"
         id="path3092"
         style="fill:#552200;stroke:none"
         sodipodi:type="arc" />
      <path
         sodipodi:type="arc"
         style="fill:#d38d5f;stroke:none"
         id="path3215"
         sodipodi:cx="-68.571426"
         sodipodi:cy="308.79074"
         sodipodi:rx="108.57143"
         sodipodi:ry="137.85715"
         d="m 40,308.79074 c 0,76.1364 -48.6090833,137.85715 -108.571426,137.85715 -59.962344,0 -108.571424,-61.72075 -108.571424,-137.85715 0,-76.1364 48.60908,-137.85715 108.571424,-137.85715 C -8.6090833,170.93359 40,232.65434 40,308.79074 z"
         transform="matrix(0.57483423,-0.20669232,0.20669232,0.57483423,85.020441,173.07238)" />
      <path
         sodipodi:type="arc"
         style="fill:#552200;stroke:none"
         id="path3232"
         sodipodi:cx="-68.571426"
         sodipodi:cy="308.79074"
         sodipodi:rx="108.57143"
         sodipodi:ry="137.85715"
         d="m 40,308.79074 c 0,76.1364 -48.6090833,137.85715 -108.571426,137.85715 -59.962344,0 -108.571424,-61.72075 -108.571424,-137.85715 0,-76.1364 48.60908,-137.85715 108.571424,-137.85715 C -8.6090833,170.93359 40,232.65434 40,308.79074 z"
         transform="matrix(-0.94101673,-0.33836003,-0.33836003,0.94101673,684.38415,39.011657)" />
      <path
         transform="matrix(-0.57483423,-0.20669232,-0.20669232,0.57483423,667.8367,173.07238)"
         d="m 40,308.79074 c 0,76.1364 -48.6090833,137.85715 -108.571426,137.85715 -59.962344,0 -108.571424,-61.72075 -108.571424,-137.85715 0,-76.1364 48.60908,-137.85715 108.571424,-137.85715 C -8.6090833,170.93359 40,232.65434 40,308.79074 z"
         sodipodi:ry="137.85715"
         sodipodi:rx="108.57143"
         sodipodi:cy="308.79074"
         sodipodi:cx="-68.571426"
         id="path3234"
         style="fill:#d38d5f;stroke:none"
         sodipodi:type="arc" />
      <path
         sodipodi:nodetypes="zcczz"
         inkscape:connector-curvature="0"
         id="path3193"
         d="m 139.3724,254.86264 c 3.81822,190.3365 55.80723,265.14576 121.46193,265.14576 l 231.15236,0 c 65.65471,0 105.49143,5.05529 118.64091,-236.57433 C 623.77708,41.804449 135.55418,64.52614 139.3724,254.86264 z"
         style="fill:#552200;stroke:#552200;stroke-width:33.01472092;stroke-opacity:1" />
      <path
         style="fill:#d38d5f;stroke:none"
         d="m 260.55683,169.84164 c -50.77773,13.60585 -95.9775,53.37212 -95.9775,119.18443 0,65.81232 30.16518,165.48969 95.9775,165.48969 l 231.70728,0 c 65.81232,0 96.01371,-99.67737 96.01371,-165.48969 0,-65.81231 -34.01062,-102.57075 -96.01371,-119.18443 -62.00308,-16.61368 -103.01584,29.93045 -115.85364,30.37538 -12.8378,0.44492 -65.0759,-43.98123 -115.85364,-30.37538 z"
         id="path3094"
         inkscape:connector-curvature="0"
         sodipodi:nodetypes="zsccszzz" />
      <g
         transform="translate(-11.309246,20)"
         id="g3269">
        <path
           transform="translate(252.71429,83.714286)"
           d="m 277.14286,230.21933 c 0,39.05442 -31.65986,70.71429 -70.71429,70.71429 -39.05442,0 -70.71428,-31.65987 -70.71428,-70.71429 0,-39.05442 31.65986,-70.71429 70.71428,-70.71429 39.05443,0 70.71429,31.65987 70.71429,70.71429 z"
           sodipodi:ry="70.714287"
           sodipodi:rx="70.714287"
           sodipodi:cy="230.21933"
           sodipodi:cx="206.42857"
           id="path3025"
           style="fill:#ffffff;stroke:#000000;stroke-width:8"
           sodipodi:type="arc" />
        <path
           transform="matrix(0.33695653,0,0,0.33695653,508.72361,217.6035)"
           d="m -81.428566,268.07648 c 0,36.293 -29.421284,65.71428 -65.714284,65.71428 -36.293,0 -65.71429,-29.42128 -65.71429,-65.71428 0,-36.293 29.42129,-65.71429 65.71429,-65.71429 36.293,0 65.714284,29.42129 65.714284,65.71429 z"
           sodipodi:ry="65.714287"
           sodipodi:rx="65.714287"
           sodipodi:cy="268.07648"
           sodipodi:cx="-147.14285"
           id="path3047"
           style="fill:#000000;stroke:none"
           sodipodi:type="arc" />
        <path
           sodipodi:nodetypes="czcsc"
           inkscape:connector-curvature="0"
           id="path3106"
           d="m 529.85715,307.93362 c 0,0 -63.92857,-11.07143 -91.78571,-10 -27.85715,1.07143 -49.64286,10 -49.64286,10 0,-39.05442 31.65986,-70.71429 70.71428,-70.71429 39.05443,0 70.71429,31.65987 70.71429,70.71429 z"
           style="fill:#a05a2c;stroke:#000000;stroke-width:8" />
      </g>
      <g
         transform="translate(8.6907538,20)"
         id="g3263">
        <g
           id="g3020"
           transform="translate(67.285716,34)">
          <path
             transform="translate(20,55.714286)"
             d="m 277.14286,230.21933 c 0,39.05442 -31.65986,70.71429 -70.71429,70.71429 -39.05442,0 -70.71428,-31.65987 -70.71428,-70.71429 0,-39.05442 31.65986,-70.71429 70.71428,-70.71429 39.05443,0 70.71429,31.65987 70.71429,70.71429 z"
             sodipodi:ry="70.714287"
             sodipodi:rx="70.714287"
             sodipodi:cy="230.21933"
             sodipodi:cx="206.42857"
             id="path3018"
             style="fill:#ffffff;stroke:#000000;stroke-width:8"
             sodipodi:type="arc" />
        </g>
        <path
           sodipodi:type="arc"
           style="fill:#000000;stroke:none"
           id="path3041"
           sodipodi:cx="-147.14285"
           sodipodi:cy="268.07648"
           sodipodi:rx="65.714287"
           sodipodi:ry="65.714287"
           d="m -81.428566,268.07648 c 0,36.293 -29.421284,65.71428 -65.714284,65.71428 -36.293,0 -65.71429,-29.42128 -65.71429,-65.71428 0,-36.293 29.42129,-65.71429 65.71429,-65.71429 36.293,0 65.714284,29.42129 65.714284,65.71429 z"
           transform="matrix(0.33695653,0,0,0.33695653,343.29503,221.6035)" />
        <path
           style="fill:#a05a2c;stroke:#000000;stroke-width:8"
           d="m 364.42857,311.93362 c 0,0 -26.78572,-16.07143 -48.92857,-15.35714 -50,0 -92.5,15.35714 -92.5,15.35714 0,-39.05442 31.65986,-70.71429 70.71429,-70.71429 39.05442,0 70.71428,31.65987 70.71428,70.71429 z"
           id="path3109"
           inkscape:connector-curvature="0"
           sodipodi:nodetypes="cccsc" />
      </g>
      <path
         sodipodi:nodetypes="czcsc"
         inkscape:connector-curvature="0"
         id="path3244"
         d="m 653.69077,593.5851 c 0,0 -185.71429,-20 -278.57144,-20 -92.85715,0 -278.571442,20 -278.571442,20 0,-112.82389 124.720682,-204.28572 278.571442,-204.28572 153.85076,0 278.57144,91.46183 278.57144,204.28572 z"
         style="fill:#d38d5f;stroke:none" />
      <g
         transform="matrix(0.8921822,0,0,0.8921822,32.70796,47.642846)"
         id="g3195">
        <path
           transform="matrix(-0.34825886,1.8225614,-1.8225614,-0.34825886,1227.313,-30.68914)"
           d="m 361.42859,442.00504 c 0,21.10516 -12.47207,38.21428 -27.85715,38.21428 -15.38507,0 -27.85714,-17.10912 -27.85714,-38.21428 0,-21.10517 12.47207,-38.21429 27.85714,-38.21429 15.38508,0 27.85715,17.10912 27.85715,38.21429 z"
           sodipodi:ry="38.214287"
           sodipodi:rx="27.857143"
           sodipodi:cy="442.00504"
           sodipodi:cx="333.57144"
           id="path3131"
           style="fill:#d38d5f;stroke:#000000;stroke-width:0.53892779"
           sodipodi:type="arc" />
        <path
           sodipodi:type="arc"
           style="fill:#d38d5f;stroke:#000000;stroke-width:0.53892779"
           id="path3167"
           sodipodi:cx="333.57144"
           sodipodi:cy="442.00504"
           sodipodi:rx="27.857143"
           sodipodi:ry="38.214287"
           d="m 361.42859,442.00504 c 0,21.10516 -12.47207,38.21428 -27.85715,38.21428 -15.38507,0 -27.85714,-17.10912 -27.85714,-38.21428 0,-21.10517 12.47207,-38.21429 27.85714,-38.21429 15.38508,0 27.85715,17.10912 27.85715,38.21429 z"
           transform="matrix(0.34825886,1.8225614,1.8225614,-0.34825886,-472.18801,-30.68914)" />
        <path
           sodipodi:type="arc"
           style="fill:#28170b;stroke:none"
           id="path3189"
           sodipodi:cx="333.57144"
           sodipodi:cy="442.00504"
           sodipodi:rx="27.857143"
           sodipodi:ry="38.214287"
           d="m 361.42859,442.00504 c 0,21.10516 -12.47207,38.21428 -27.85715,38.21428 -15.38507,0 -27.85714,-17.10912 -27.85714,-38.21428 0,-21.10517 12.47207,-38.21429 27.85714,-38.21429 15.38508,0 27.85715,17.10912 27.85715,38.21429 z"
           transform="matrix(-0.14815356,0.77533981,-0.77533981,-0.14815356,703.68637,234.18653)" />
        <path
           transform="matrix(0.14815356,0.77533981,0.77533981,-0.14815356,49.438616,234.18653)"
           d="m 361.42859,442.00504 c 0,21.10516 -12.47207,38.21428 -27.85715,38.21428 -15.38507,0 -27.85714,-17.10912 -27.85714,-38.21428 0,-21.10517 12.47207,-38.21429 27.85714,-38.21429 15.38508,0 27.85715,17.10912 27.85715,38.21429 z"
           sodipodi:ry="38.214287"
           sodipodi:rx="27.857143"
           sodipodi:cy="442.00504"
           sodipodi:cx="333.57144"
           id="path3191"
           style="fill:#28170b;stroke:none"
           sodipodi:type="arc" />
      </g>
      <path
         style="fill:#d38d5f;stroke:none"
         d="m 653.69077,609.29938 c 0,0 -185.71429,-20 -278.57144,-20 -92.85715,0 -278.571442,20 -278.571442,20 0,112.82389 124.720682,204.28572 278.571442,204.28572 153.85076,0 278.57144,-91.46183 278.57144,-204.28572 z"
         id="path3247"
         inkscape:connector-curvature="0"
         sodipodi:nodetypes="czcsc" />
    </g>
  </g>
</svg>
