<?xml version="1.0"?><svg width="750" height="628" xmlns="http://www.w3.org/2000/svg">
 <title>Teenage Girl Cartoon Face</title>

 <g>
  <title>Layer 1</title>
  <path d="m151.889008,603.049988c-0.825012,-0.484009 -3.975006,-1.18396 -7,-1.554993c-9.468002,-1.159973 -19.295006,-3.585999 -24.77301,-6.11499c-2.898994,-1.338013 -5.935997,-2.434021 -6.748001,-2.434021c-1.695,0 -15.811798,-6.11499 -28.979393,-12.552979c-9.239403,-4.517029 -24.509705,-13.638 -28.024502,-16.737976c-4.8372,-4.267029 -9.3055,-7.58606 -13.475502,-10.007019c-2.474998,-1.437988 -5.9991,-4.208984 -7.8312,-6.15802c-1.832199,-1.948975 -3.672501,-3.544006 -4.0895,-3.544006c-0.933599,0 -3.0793,-4.562012 -3.0793,-6.546997c0,-0.799011 -0.888599,-2.341003 -1.9746,-3.427002c-2.965599,-2.966003 -3.543499,-6.716003 -1.647499,-10.691956c2.657,-5.572021 9.520601,-8.01001 26.0525,-9.257019c7.4828,-0.564026 14.467598,-1.487 15.521698,-2.051025c1.054001,-0.563995 2.874298,-1.02597 4.045105,-1.02597c4.772194,0 13.019699,-5.419006 22.523094,-14.800018c9.660103,-9.535004 12.695099,-14.082001 21.823105,-32.699982c6.484001,-13.225006 9.390999,-24.026001 8.410995,-31.254028c-0.439995,-3.242981 -3.917,-11.875 -8.155998,-20.245972c-1.778999,-3.514008 -5.981003,-17.764008 -8.551003,-29c-2.306999,-10.088013 -3.602997,-15.32901 -5.194,-21c-1.259193,-4.487 -0.5,-64.786011 0.995003,-79c0.607002,-5.775024 1.567001,-15.450012 2.133003,-21.5c1.082001,-11.568008 3.147995,-25.269012 4.824997,-32.000015c0.547997,-2.199997 1.528,-6.925003 2.177002,-10.5c0.649002,-3.574997 2.435997,-8.75 3.972,-11.5c1.535995,-2.75 3.103996,-6.350006 3.485001,-8c1.348,-5.845001 14.751991,-31.074997 20.364998,-38.332993c3.132004,-4.050003 6.436996,-8.332001 7.345001,-9.514999c0.908005,-1.183014 3.735992,-5.414001 6.285004,-9.402008c2.548996,-3.987 4.974991,-7.25 5.391998,-7.25c0.416,0 2.472,-2.931992 4.569,-6.516006c2.095993,-3.583992 4.593002,-7.070992 5.548996,-7.749992c0.955002,-0.678001 2.332001,-2.359001 3.059006,-3.734001c0.72699,-1.375 3.610992,-5.134003 6.40799,-8.353996c10.784012,-12.411507 15.725998,-18.183006 16.394012,-19.1455c0.380997,-0.550003 1.797989,-2.644806 3.147995,-4.655106c1.349991,-2.0103 3.630997,-4.350296 5.069992,-5.200096c1.438004,-0.8498 4.359009,-3.142502 6.491013,-5.094902c2.130997,-1.952499 4.202988,-3.549896 4.602997,-3.549896c0.401001,0 2.085999,-1.142601 3.746002,-2.539101c6.799988,-5.721703 30.470001,-17.694603 42.206985,-21.349003c1.96402,-0.611599 7.151001,-1.1119 11.528015,-1.1119c7.066986,0 8.792999,0.400002 15.428986,3.5769c4.109009,1.9673 8.259003,4.287102 9.222015,5.154999c1.606995,1.4496 1.75,1.4202 1.75,-0.360699c0,-5.058998 13.928986,-22.246498 20.056,-24.748199c1.955994,-0.798599 4.178986,-2.202299 4.940002,-3.1192c2.273987,-2.740101 12.691986,-7.503799 16.410004,-7.503799c1.904999,0 4.72998,-0.491402 6.277985,-1.092001c1.549011,-0.600599 5.291016,-1.495199 8.31601,-1.988c3.024994,-0.4928 7.524994,-1.3727 10,-1.9553c12.567993,-2.958799 49.125,-4.206079 64,-2.183599c8.398987,1.142 17.936005,3.5829 21.881989,5.600901c1.440002,0.736099 5.093018,2.507198 8.118011,3.9359c3.024994,1.428699 7.975006,3.892799 11,5.475599c3.024994,1.5828 9.324982,4.8267 14,7.208399c7.674988,3.9105 12.744995,7.379501 22.856995,15.6399c1.846008,1.5084 5.309998,3.981102 7.696991,5.494801c6.054016,3.839001 18.932983,17.031601 32.127991,32.908104c14.898987,17.927795 16.39502,20.088799 23.720032,34.273796c3.459961,6.699997 7.044006,13.531006 7.964966,15.181c0.921021,1.649994 2.52002,5.070007 3.55304,7.598999c1.824951,4.468002 2.026001,4.617004 7.031006,5.209c6.115967,0.725006 10.245972,-0.83699 17.244995,-6.522003c5.69696,-4.626999 9.425964,-5.548996 13.634949,-3.371994c3.823059,1.975998 5.169006,4.352005 5.169006,9.123993c0,3.817001 0.591003,3.125 -16.5,19.290009c-1.099976,1.039993 -3.350952,2.584 -5.002991,3.429993c-1.651001,0.846008 -3.878967,2.506012 -4.950012,3.690002c-1.743958,1.927002 -1.80896,2.487 -0.619995,5.352997c2.427002,5.848999 9.291016,26.119003 10.735046,31.699005c1.450989,5.611008 3.021973,12.001007 7.743958,31.5c1.465027,6.050003 3.530029,13.925003 4.590027,17.500015c2.203979,7.436981 2.713989,10.610992 3.937988,24.5c0.484009,5.5 1.395996,13.149994 2.025024,17c1.326965,8.110992 2.737,26.408997 3.468994,45c0.783997,19.937988 2.688965,39.458984 5.609985,57.5c0.578979,3.574982 1.429993,9.649994 1.890015,13.5c0.888977,7.423981 3.528992,20.004974 5.245972,25c0.567993,1.649994 1.40802,5.138 1.868042,7.750977c0.797974,4.529999 4.15094,16.484009 7.641968,27.249023c3.765991,11.612976 15.875,31.455994 22.142029,36.283966c6.665955,5.136047 14.983948,10.216003 16.72699,10.216003c0.942993,0 3.406006,0.507019 5.473999,1.127014c5.130005,1.536987 14.45697,-1.427002 23.743958,-7.544983c3.825012,-2.52002 7.938049,-4.582031 9.141052,-4.582031c3.596985,0 7.723999,2.708008 9.065979,5.947021c1.450989,3.505005 0.744019,4.960022 -6.642029,13.661011c-2.384949,2.809998 -4.335999,5.82196 -4.335999,6.69397c0,0.872009 -0.885986,2.205017 -1.96698,2.963013c-1.08197,0.757996 -3.372009,3.145996 -5.088989,5.307007c-6.278015,7.901978 -18.567017,20.060974 -23.202026,22.95697c-2.615967,1.634033 -4.975952,3.655029 -5.243958,4.491028c-0.268005,0.835999 -2.104004,2.390991 -4.082031,3.455017c-1.97699,1.065002 -4.34198,2.860962 -5.255005,3.990967c-0.914001,1.130005 -5.710999,4.372009 -10.661011,7.204041c-6.975952,3.990967 -10.349976,5.299988 -15,5.81897c-3.299988,0.369019 -9.375,1.369995 -13.5,2.223022c-6.760986,1.399963 -42.759949,3.203003 -69,3.455994c-9.803955,0.094971 -23.143005,-1.643005 -27.5,-3.583008c-20.020996,-8.914001 -22.531982,-10.981995 -29.859985,-24.585022c-1.333008,-2.474976 -3.372986,-5.356995 -4.531982,-6.403992c-1.160004,-1.047974 -2.108002,-2.35199 -2.108002,-2.89801c0,-0.544983 -1.481995,-2.837952 -3.292023,-5.094971c-4.588989,-5.718994 -11.707977,-17.867981 -11.707977,-19.978027c0,-0.966003 -0.460999,-2.615967 -1.024017,-3.667969c-0.942993,-1.762024 -1.789001,-1.342041 -10.75,5.325012c-22.256989,16.560974 -46.625977,27.573975 -72.225983,32.638977c-15.589996,3.083984 -41.449005,3.085022 -57,0.002014c-33.428009,-6.627991 -65.076019,-23.465027 -90.75,-48.280029c-5.445007,-5.263 -6.187012,-5.422974 -3.904022,-0.843018c3.005005,6.029053 4.958008,21.187012 4.360016,33.841003c-0.536011,11.343018 -0.807007,12.608032 -4.098999,19.145996c-7.028,13.956055 -14.550995,18.874023 -35.106995,22.95105c-9.054001,1.795959 -68.823013,2.937988 -71.5,1.365967z" fill="#000000" id="path2243"/>
  <path d="m215.889008,599.648987c1.375,-0.336975 4.186996,-0.877991 6.25,-1.203003c3.112991,-0.48999 3.75,-0.992981 3.75,-2.961975c0,-1.304016 0.561996,-2.598022 1.25,-2.875c0.686996,-0.278015 0.326996,-0.540039 -0.800003,-0.583984c-1.128006,-0.04303 -2.498001,0.368958 -3.044006,0.914978c-0.546997,0.546997 -3.899002,1.257019 -7.449997,1.578979c-3.550995,0.322021 -7.356003,0.967041 -8.455994,1.434021c-2.076004,0.880981 -33.669006,1.953003 -36.75,1.247986c-0.963013,-0.221008 -1.75,-0.97998 -1.75,-1.687012c0,-0.992004 3.929993,-1.328003 17.139999,-1.46698c9.426987,-0.098999 17.863998,-0.549988 18.75,-1.002014c0.884995,-0.453003 4.488998,-1.109985 8.006989,-1.460999c3.518997,-0.351013 6.893997,-1.036011 7.5,-1.521973c0.60701,-0.487 2.565002,-1.197021 4.353012,-1.580017l3.25,-0.69397l0,-20.362c0,-12.496033 -0.387009,-20.600037 -1,-20.980042c-0.550003,-0.338989 -1,-2.396973 -1,-4.57196c0,-2.175049 -0.407013,-4.736023 -0.903015,-5.69104c-0.495987,-0.954956 -1.426987,-3.760986 -2.067993,-6.237c-0.641006,-2.474976 -1.584,-5.880981 -2.097,-7.570984c-0.513,-1.689026 -0.931992,-3.960999 -0.931992,-5.049011c0,-1.088989 -0.39801,-2.406982 -0.884003,-2.929993c-0.486008,-0.521973 -1.85701,-3.875 -3.047012,-7.449982c-1.189987,-3.575012 -2.592987,-7.281006 -3.116989,-8.236023c-0.524002,-0.954987 -0.951996,-2.78299 -0.951996,-4.061981c0,-1.279022 -0.900009,-4.188995 -2,-6.464996c-1.100006,-2.277008 -2,-5.26001 -2,-6.629028c0,-1.368988 -0.450012,-2.767975 -1,-3.107971c-0.550003,-0.33902 -1,-1.689026 -1,-3c0,-1.310028 -0.450012,-2.660004 -1,-3c-0.550003,-0.33902 -1,-2.58902 -1,-5c0,-2.410004 -0.450012,-4.660004 -1,-5c-0.550003,-0.33902 -1,-1.689026 -1,-3c0,-1.310028 -0.450012,-2.660004 -1,-3c-0.550003,-0.33902 -1,-2.139008 -1,-4c0,-1.860016 -0.450012,-3.660004 -1,-4c-0.550003,-0.33902 -1,-1.919006 -1,-3.509003c0,-1.590027 -0.608002,-3.251007 -1.350006,-3.69101c-0.742004,-0.440002 -1.634995,-2.950012 -1.984009,-5.578003c-0.738998,-5.550995 -5.140991,-19.212006 -7.230988,-22.436005c-0.789001,-1.217987 -1.434998,-3.553986 -1.434998,-5.19101c0,-1.636993 -0.450012,-3.254974 -1,-3.594971c-0.550003,-0.33902 -1,-1.689026 -1,-3c0,-1.310028 -0.450012,-2.660004 -1,-3c-0.550003,-0.33902 -1,-1.689026 -1,-3c0,-1.310028 -0.450012,-2.660004 -1,-3c-0.550003,-0.33902 -1,-2.096008 -1,-3.904022c0,-2.015991 -0.77301,-3.984985 -2,-5.095978c-1.345001,-1.21701 -2,-3.07901 -2,-5.688019c0,-2.199005 -1.131012,-6.109985 -2.612015,-9.031982c-1.577988,-3.115021 -2.819992,-7.554016 -3.137985,-11.21701c-0.289001,-3.334015 -1.363007,-7.731995 -2.388,-9.77301c-1.024002,-2.039978 -1.862,-4.903992 -1.862,-6.363007c0,-2.415985 -0.286011,-2.612 -3.200012,-2.18399c-2.337997,0.343018 -4.559998,-0.332001 -8.241989,-2.502991c-2.774002,-1.63501 -6.095001,-3.373016 -7.381012,-3.862l-2.338989,-0.889008l0.707001,10.256012c0.388,5.639984 1.110001,13.630005 1.604996,17.755005c1.983994,16.565979 2.710999,36.060974 3.412003,91.5c0.904999,71.564972 1.014999,70.423981 -8.830002,91.499969c-2.063004,4.41803 -13.257996,17 -15.125,17c-0.522003,0 -1.776001,0.747986 -2.786003,1.661987c-2.223,2.012024 -5.162003,3.764038 -9.820999,5.857056c-1.925003,0.863953 -4.400002,2.007996 -5.5,2.540955c-4.644997,2.252991 -9.576401,3.255005 -19.000397,3.858032l-10,0.640991l7.754196,3.721008c4.2649,2.045959 7.950699,3.719971 8.190903,3.719971c0.240196,0 4.260796,1.799988 8.934296,4c4.674004,2.200012 9.306999,4 10.295006,4c0.987999,0 4.052994,1.064026 6.810997,2.363037c5.737,2.703003 16.150993,5.271973 25.286995,6.237976c3.449997,0.364014 6.527008,1.075012 6.837997,1.578979c0.616013,0.994995 58.177002,0.555054 62.390015,-0.47699z" fill="#ba321a" id="path2241"/>
  <path d="m577.866028,599.195984c-0.013,-0.411987 -3.228027,-4.328003 -7.14502,-8.700989c-5.741028,-6.408997 -8.453003,-10.674988 -13.978027,-21.987976c-3.769958,-7.720032 -6.854004,-14.847046 -6.854004,-15.838013c0,-0.991028 -0.899963,-3.565979 -2,-5.723022c-1.099976,-2.156006 -2,-4.747986 -2,-5.76001c0,-1.011963 -0.427002,-2.266968 -0.947998,-2.789978c-0.521973,-0.521973 -1.363953,-3.424988 -1.872009,-6.450012c-1.134949,-6.756958 -3.015991,-14.349976 -4.705994,-19c-1.994995,-5.487976 -4.473999,-17.409973 -4.473999,-21.517975l0,-3.733002l-7.733948,10.376007c-4.253052,5.705994 -12.846008,15.642975 -19.095032,22.082001l-11.362,11.705994l0.696991,4.125c0.76001,4.495972 1.819,6.85199 5.21402,11.588989c1.220978,1.705017 1.93399,3.385986 1.582977,3.736023c-0.349976,0.350952 -0.112,0.636963 0.529999,0.636963c0.642029,0 1.167023,0.660034 1.167023,1.465027c0,0.805969 0.899994,1.94696 2,2.534973c1.100006,0.588989 2,1.730042 2,2.536011c0,0.804993 0.419006,1.463989 0.932007,1.463989c0.513,0 1.204987,0.859009 1.537994,1.908997c0.333984,1.049011 1.94397,3.412048 3.578979,5.25c1.634033,1.838013 3.241028,4.354004 3.570007,5.591003c0.328003,1.238037 0.945984,2.25 1.372009,2.25c0.427002,0 1.041016,0.788025 1.36499,1.75c2.049988,6.090027 7.215027,11.25 11.257996,11.25c0.762024,0 1.385986,0.578003 1.385986,1.285034c0,0.705994 3.262024,2.552002 7.25,4.10199c3.987,1.549988 7.480042,3.187988 7.762024,3.640015c1.036987,1.664001 29.013,3.810974 28.965027,2.222961z" fill="#ba321a" id="path2239"/>
  <path d="m560.888977,590.445984c0,-0.825012 0.675049,-1.5 1.5,-1.5c0.825012,0 1.5,0.674988 1.5,1.5c0,0.825012 -0.674988,1.5 -1.5,1.5c-0.824951,0 -1.5,-0.674988 -1.5,-1.5z" fill="#000000" id="path2237"/>
  <path d="m552.888977,587.445984c0,-0.825012 0.675049,-1.5 1.5,-1.5c0.825012,0 1.5,0.674988 1.5,1.5c0,0.825012 -0.674988,1.5 -1.5,1.5c-0.824951,0 -1.5,-0.674988 -1.5,-1.5z" fill="#000000" id="path2235"/>
  <path d="m543.531006,584.445984c-0.825012,-0.825012 -2.000977,-1.5 -2.612976,-1.5c-1.910034,0 -20.585022,-19.211975 -24.400024,-25.102966c-1.996033,-3.082031 -3.629028,-6.119019 -3.629028,-6.75c0,-0.631042 -0.449951,-1.147034 -0.999969,-1.147034c-0.550018,0 -1,-0.526978 -1,-1.170959c0,-0.644043 -0.670013,-1.911011 -1.489014,-2.815002c-0.817993,-0.905029 -1.773987,-3.078003 -2.125,-4.829041c-1.252991,-6.265991 3.57901,-3.099976 6.204987,4.065002c0.353027,0.963013 1.039001,1.75 1.525024,1.75c0.486023,0 0.883972,0.569031 0.883972,1.264038c0,2.772949 7.746033,12.748962 17.072021,21.985962c5.414001,5.363037 10.307007,9.75 10.874023,9.75c1.554993,0 5.053955,3.269043 5.053955,4.723022c0,1.755981 -3.526001,1.609009 -5.357971,-0.223022z" fill="#000000" id="path2233"/>
  <path d="m635.742981,597.255005c0.767029,-1.153992 13.375,-3.34198 16.162048,-2.804993c1.067993,0.205017 2.202942,-0.049011 2.521973,-0.565002c0.31897,-0.515991 1.932983,-0.939026 3.585999,-0.939026c2.784973,0 6.697998,-1.453003 7.875977,-2.924011c0.275024,-0.342957 2.684021,-1.737976 5.355042,-3.099976c2.669983,-1.362 6.326965,-3.825989 8.125977,-5.476013c4.867981,-4.463989 6.307983,-5.5 7.643005,-5.5c0.664978,0 0.916992,-0.291992 0.559998,-0.64801c-0.901978,-0.902954 4.062012,-5.041992 8.539978,-7.121948c5.358032,-2.488037 4.854004,-4.230042 -1.223999,-4.230042c-2.75,0 -5,-0.450012 -5,-1c0,-0.617981 -5.630981,-1.026978 -14.75,-1.070984c-14.398987,-0.06897 -25.049988,-0.901978 -34.357971,-2.684998c-4.79303,-0.919006 -15.186035,-7.510986 -17.25,-10.940979c-0.627991,-1.045044 -2.041992,-3.392029 -3.142029,-5.217041c-1.099976,-1.823975 -3.349976,-4.977966 -5,-7.007996c-1.649963,-2.029968 -3.854004,-5.466003 -4.897949,-7.633972c-2.285034,-4.752014 -3.139038,-6.471008 -5.591003,-11.267029c-6.832031,-13.363983 -13.361023,-28.559998 -14.640015,-34.076996c-0.825012,-3.554993 -2.661011,-9.194977 -4.080017,-12.531982c-2.70697,-6.365021 -4.338013,-17.311005 -6.27002,-42.067993c-0.557983,-7.150024 -1.304993,-13.900024 -1.661987,-15c-0.355957,-1.100006 -0.919983,-7.850006 -1.252991,-15l-0.606018,-13l-2.869995,11.5c-6.589966,26.40799 -19.182983,57.117981 -32.244995,78.636993c-3.75,6.177002 -4.38501,8.006989 -4.38501,12.634979c0,2.976013 0.670044,7.620026 1.489014,10.320007c0.819031,2.699005 1.497009,5.808014 1.505981,6.90802c0.009033,1.099976 0.689026,3.288971 1.511047,4.86499c0.820984,1.574982 1.493958,3.928986 1.493958,5.230011c0,1.300964 0.640015,4.062012 1.423035,6.13501c0.782959,2.073975 1.708984,5.896973 2.057983,8.496948c0.348999,2.600037 1.057983,4.989014 1.575989,5.309021c0.519043,0.320007 0.958008,1.567993 0.97699,2.77301c0.018005,1.205994 0.903015,3.990967 1.966003,6.190979c1.062012,2.200012 1.947021,4.794006 1.966003,5.764038c0.018005,0.969971 0.457031,2.544983 0.973999,3.5c0.518005,0.954956 3.347046,6.685974 6.287048,12.735962c5.981995,12.308044 7.929993,15.5 12.272949,20.111023c1.650024,1.752014 4.772034,5.31897 6.939026,7.925964l3.940002,4.739014l25.914978,-0.497986c15.059998,-0.289978 26.184998,-0.905029 26.559998,-1.468994z" fill="#ff7f00" id="path2231"/>
  <path d="m236.309006,595.231995c3.242996,-0.891968 11.949997,-6.901978 14.37999,-9.924011c1.264999,-1.573975 3.666,-5.70697 5.335999,-9.18396c2.653015,-5.527039 3.10202,-7.730042 3.565002,-17.5c0.514008,-10.863037 0.062012,-14.537048 -3.572998,-29.039001c-0.533005,-2.124023 -2.436996,-6.174011 -4.231995,-9c-7.576004,-11.925018 -18.182999,-33.122009 -22.880005,-45.720032c-4.604996,-12.352997 -6.688995,-17.276978 -12.125992,-28.64798c-2.690002,-5.626007 -4.889999,-10.863007 -4.889999,-11.638c0,-1.362 -2.624008,-7.505005 -9.45401,-22.132996c-3.278992,-7.022003 -5.903,-15.240021 -5.440002,-17.038025c0.337997,-1.316986 -1.834,-9.240997 -3.631989,-13.244995c-0.811005,-1.807007 -1.473999,-5.419006 -1.473999,-8.027985c0,-2.626007 -0.679001,-5.712006 -1.521011,-6.914001c-1.906998,-2.723022 -3.334,-9.315002 -4.412994,-20.378021c-1.236008,-12.668976 -3.190994,-15.059998 -10.632996,-13.005981c-6.297012,1.738983 -7.832001,5.557983 -4.569,11.367981c1.026001,1.826019 2.061996,6.041016 2.301987,9.366028c0.275009,3.798981 1.440002,8.093994 3.13501,11.559998c1.561005,3.188995 2.699005,7.199982 2.699005,9.509979c0,2.726013 0.634995,4.571014 2,5.805023c1.22699,1.110992 2,3.079987 2,5.095978c0,1.808014 0.449997,3.565002 1,3.904022c0.549988,0.339996 1,1.689972 1,3c0,1.310974 0.449997,2.66098 1,3c0.549988,0.339996 1,1.689972 1,3c0,1.310974 0.449997,2.66098 1,3c0.549988,0.339996 1.009995,2.053986 1.021988,3.80899c0.012009,1.755981 0.902008,4.31601 1.978012,5.69101c1.074997,1.375 1.964996,3.485992 1.97699,4.690979c0.013,1.205017 0.473007,2.470001 1.02301,2.809021c0.549988,0.339996 1,1.689972 1,3c0,1.310974 0.404999,2.632996 0.900986,2.939972c0.496002,0.306 1.211014,3.225006 1.590012,6.486023c0.424988,3.665985 1.225998,6.135986 2.097992,6.470978c0.839005,0.321014 1.411011,1.947021 1.411011,4.013c0,1.910004 0.449997,3.751007 1,4.090027c0.549988,0.339996 1,2.139984 1,4c0,1.860992 0.449997,3.66098 1,4c0.549988,0.339996 1,1.689972 1,3c0,1.310974 0.449997,2.66098 1,3c0.549988,0.339996 1,2.589996 1,5c0,2.41098 0.449997,4.66098 1,5c0.549988,0.339996 1,1.689972 1,3c0,1.310974 0.449997,2.66098 1,3c0.549988,0.339996 1,1.722992 1,3.072998c0,1.349976 0.519989,3.460999 1.155991,4.690979c2.529999,4.894012 2.844009,5.803009 2.844009,8.236023c0,1.389984 0.519989,3.533997 1.155991,4.763977c2.428009,4.697021 2.844009,5.755005 2.844009,7.236023c0,0.839996 0.519989,2.533997 1.155991,3.763977c2.525009,4.884003 2.844009,5.800018 2.844009,8.164032c0,1.349976 0.449997,2.732971 1,3.07196c0.549988,0.340027 1,2.140015 1,4c0,1.861023 0.449997,3.661011 1,4c0.549988,0.340027 1,1.915039 1,3.5c0,1.585999 0.449997,3.161011 1,3.5c0.549988,0.340027 1,2.590027 1,5c0,2.411011 0.449997,4.661011 1,5c0.612,0.379028 1,8.343994 1,20.559021c0,10.968018 0.321991,19.940979 0.715988,19.940979c1.748001,0 9.284012,-3.356995 9.284012,-4.13501c0,-0.475952 0.674988,-0.86499 1.5,-0.86499c2.521988,0 1.872986,4.760986 -0.75,5.496033c-2.253006,0.630981 -5.934006,2.091003 -8.75,3.471008c-0.825012,0.403992 -1.653015,2.037964 -1.841003,3.630981c-0.187012,1.593018 -0.862,3.249023 -1.5,3.679993c-1.07901,0.729004 2.319,0.22998 6.761002,-0.992004z" fill="#ff7f00" id="path2229"/>
  <path d="m407.389008,572.466003c35.071991,-6.065979 70.406006,-25.705017 97.595001,-54.246033c18.317993,-19.228973 31.226013,-37.983978 43.890015,-63.773956c12.712952,-25.888 20.682983,-49.392029 25.941956,-76.5c2.291016,-11.806 5.072998,-32.360016 5.072998,-37.476013l0,-3.375l6.163025,2.415985c6.327026,2.479004 7.127991,2.504028 14.836975,0.460022c8.876038,-2.354004 15.741028,-12.415009 17.923035,-26.266022c1.429993,-9.077972 1.536011,-30.105988 0.188965,-37.241974c-0.518005,-2.741028 -0.730957,-5.324005 -0.474976,-5.739014c0.257019,-0.415985 -0.179016,-2.222992 -0.968018,-4.015991c-0.789001,-1.794006 -2.011963,-4.837006 -2.71698,-6.761993c-2.794983,-7.63002 -8.283997,-11.187012 -20.471985,-13.264008c-8.73999,-1.490005 -9.101013,-1.473007 -13.480042,0.606995c-2.474976,1.175995 -4.837952,2.291992 -5.25,2.481003c-0.412964,0.188995 -0.75,-0.493011 -0.75,-1.514999c0,-4.62001 -11.700989,-47.162003 -13.511963,-49.128006c-0.161987,-0.175995 -2.182007,0.643005 -4.488037,1.819c-10.470947,5.341995 -22.698975,9.167999 -34,10.638c-14.232971,1.850998 -18.074982,1.901993 -34.934967,0.458008c-16.171997,-1.384003 -16.167999,-1.384003 -27.932007,-6.234009c-5.151001,-2.123993 -9.89801,-3.862 -10.549011,-3.862c-0.651001,0 -4.807007,-2.362 -9.235992,-5.25c-4.428986,-2.886993 -10.032013,-6.490005 -12.450989,-8.005997c-9.240021,-5.792999 -14.632019,-10.318008 -21.397003,-17.956009c-3.850006,-4.347992 -7.59201,-9.029999 -8.313995,-10.406998c-1.660004,-3.160995 -4.796997,-2.800003 -4.431,0.51001c0.140991,1.269989 1.153992,3.449997 2.25,4.843994c2.233002,2.837997 2.673981,7.264999 0.723999,7.264999c-0.699005,0 -2.377014,-2.024994 -3.729004,-4.5c-1.35202,-2.475006 -2.786011,-4.5 -3.187012,-4.5c-0.399994,0 -1.984985,1.574997 -3.520996,3.5c-1.70401,2.136002 -3.670013,3.5 -5.041992,3.5c-3.20401,0 -2.811005,-1.347 1.75,-6c2.199982,-2.244003 3.984985,-4.625 3.967987,-5.289993c-0.018005,-0.69101 -0.60199,-0.459 -1.359985,0.539993c-1.468018,1.934006 -4.608002,2.380005 -4.608002,0.654999c0,-0.602997 0.77298,-2.404999 1.71698,-4.003998c1.498016,-2.535995 1.548004,-3.324005 0.386017,-6.154007c-0.733002,-1.785995 -1.557007,-4.483994 -1.830994,-5.996994c-0.802002,-4.417999 2.148987,-3.382004 4.272003,1.5c2.362,5.432007 2.166992,5.235001 3.830994,3.854004c1.223999,-1.016006 1.160004,-1.902008 -0.451996,-6.313004c-1.031006,-2.822006 -2.953003,-6.291992 -4.27002,-7.710999c-1.316986,-1.419006 -3.212006,-3.867004 -4.210999,-5.440002c-1,-1.572998 -3.083008,-4.125999 -4.630005,-5.672997c-1.546997,-1.547005 -2.811981,-3.427002 -2.811981,-4.177002c0,-1.483002 -6.304993,-7.763 -15,-14.941002c-3.024994,-2.498001 -10.088013,-6.908096 -15.695007,-9.801399c-5.606995,-2.893402 -11.907013,-6.686302 -14,-8.428696c-3.880005,-3.230301 -11.661011,-7.031303 -16.485992,-8.053703c-1.473999,-0.312401 -4.377014,-2.168297 -6.451019,-4.124397l-3.770996,-3.556404l-3.048981,3.485901c-1.677002,1.917198 -5,4.447601 -7.386017,5.622902c-4.13501,2.037697 -24.673004,21.908798 -33.661987,32.569801c-2.200012,2.608994 -5.004013,5.912994 -6.230011,7.340996c-5.923996,6.899002 -7.985001,9.409004 -10.560989,12.859001c-4.790009,6.414993 -13.297012,19.828003 -14.655014,23.104996c-0.712997,1.723007 -1.689987,3.132004 -2.168991,3.132004c-1.074997,0 -15.421997,28.471008 -17.278,34.285004c-3.246002,10.17099 -4.595001,15.697998 -5.544998,22.714996c-0.557999,4.125 -1.479004,9.074997 -2.046005,11c-0.567993,1.925003 -1.326996,7.307007 -1.688004,11.960007c-0.539001,6.957993 -1.061996,8.86499 -2.946991,10.75c-2.721008,2.720993 -6.919998,2.944 -13.339005,0.709c-2.451996,-0.854004 -6.951996,-1.751007 -10,-1.993011c-3.048996,-0.242996 -6.992004,-0.681 -8.764999,-0.973999c-5.574005,-0.919998 -13.175995,4.100998 -15.968002,10.548019c-1.640991,3.788971 -4.188004,38.523987 -3.811996,52c0.306992,11.03598 3.692001,17.427979 11.526001,21.767975c3.209,1.778015 6.703995,3.232025 7.764999,3.232025c1.061996,0 4.459991,-1.350006 7.552002,-3c6.21199,-3.314026 10.313995,-3.747009 14.587997,-1.537018c3.595001,1.859009 3.755005,2.32901 5.585999,16.355011c1.729004,13.255005 1.927002,14.097992 4.654007,19.904999c1.217987,2.592987 1.722,5.048004 1.304993,6.359985c-0.382004,1.205017 -0.009995,3.726013 0.852997,5.777008c2.063004,4.903015 4.421997,13.644989 5.165009,19.140015c0.334991,2.474976 2.664001,8.985992 5.175995,14.468994c2.511993,5.481995 5.921997,13.348999 7.576996,17.481995c1.654007,4.131989 4.975998,11.725983 7.382004,16.873993c2.404999,5.14801 4.374008,9.774994 4.374008,10.281006c0,0.506989 0.426987,1.703003 0.949997,2.65799c0.522995,0.955017 3.048996,7.136017 5.61499,13.736023c2.565002,6.599976 7.156998,16.898987 10.20401,22.886993c4.674988,9.184998 7.039001,12.446991 15.125992,20.872986c31.580994,32.901978 67.167999,50.88501 111.105011,56.143982c6.613007,0.792053 29.507996,-0.328003 38.5,-1.883972z" fill="#e8cdba" id="path2227"/>
  <path d="m295.889008,539.445984c0,-0.825012 0.674988,-1.5 1.5,-1.5c0.824982,0 1.5,0.674988 1.5,1.5c0,0.825012 -0.675018,1.5 -1.5,1.5c-0.825012,0 -1.5,-0.674988 -1.5,-1.5z" fill="#000000" id="path2225"/>
  <path d="m284.889008,533.445984c0,-0.825012 0.674988,-1.5 1.5,-1.5c0.824982,0 1.5,0.674988 1.5,1.5c0,0.825012 -0.675018,1.5 -1.5,1.5c-0.825012,0 -1.5,-0.674988 -1.5,-1.5z" fill="#000000" id="path2223"/>
  <path d="m252.889008,503.446014c0,-0.825012 0.674988,-1.5 1.5,-1.5c0.824997,0 1.5,0.674988 1.5,1.5c0,0.824982 -0.675003,1.5 -1.5,1.5c-0.825012,0 -1.5,-0.675018 -1.5,-1.5z" fill="#000000" id="path2219"/>
  <path d="m335.573883,351.534454a68.712601,68.712601 0 1 1 -137.425034,0a68.712601,68.712601 0 1 1 137.425034,0z" fill="#ffaaaa" opacity="0.75" id="path2247"/>
  <path d="m246.889008,495.446014c0,-0.825012 0.674988,-1.5 1.5,-1.5c0.824997,0 1.5,0.674988 1.5,1.5c0,0.824982 -0.675003,1.5 -1.5,1.5c-0.825012,0 -1.5,-0.675018 -1.5,-1.5z" fill="#000000" id="path2215"/>
  <path d="m583.440002,316.60199c-1.403992,-1.838989 -2.551025,-3.860992 -2.551025,-4.492004c0,-0.735992 -1.691956,-1.060974 -4.712952,-0.905975c-3.670044,0.188995 -4.787048,-0.117004 -5.049011,-1.380005c-0.320007,-1.546997 5.507996,-5.877991 7.911011,-5.877991c1.836975,0 6.039978,3.884979 7.83197,7.237976c2.494995,4.671021 5.263977,4.719025 8.093994,0.141022c2.109009,-3.414001 2.342041,-5.156006 2.742004,-20.535004c0.369995,-14.201019 0.190002,-17.183014 -1.156006,-19.238007c-2.506958,-3.825012 -6.615967,-4.17099 -12.570007,-1.058014c-8.638977,4.516998 -11.54895,0.601013 -3.395996,-4.569977c5.286011,-3.35202 11.129028,-3.913025 16.664001,-1.601013c5.372986,2.244995 5.934021,5.001007 5.467041,26.867004c-0.404053,18.958984 -0.453003,19.329987 -3.213013,24.006012c-2.789001,4.72699 -2.830017,4.75 -8.15802,4.75c-4.895996,0 -5.572021,-0.285004 -7.903992,-3.344025z" fill="#000000" id="path2213"/>
  <path d="m160.940994,314.065002c-5.662994,-1.015991 -7.373993,-5.174011 -7.870987,-19.127014c-0.512009,-14.336975 2.112991,-27.009003 6.365997,-30.741974c4.121002,-3.615021 9.733994,-3.061005 17.710999,1.75c3.647995,2.199982 7.037003,4 7.531998,4c1.451996,0 4.210007,3.510986 4.210007,5.360992c0,3.406982 -3.083008,2.701996 -12.121002,-2.77301c-5.072998,-3.072998 -9.789001,-5.587982 -10.479004,-5.587982c-4.598007,0 -8.985001,15.297974 -8.143005,28.392975c0.695007,10.818024 2.026001,13.607025 6.490997,13.607025c2.808014,0 4.448013,-0.999023 9.089005,-5.539001c5.360001,-5.243011 5.903,-5.52301 10.16301,-5.25c4.056,0.260986 4.5,0.53598 4.5,2.789001c0,2.185974 -0.395004,2.470978 -3.134003,2.261993c-2.606003,-0.197998 -3.860001,0.559998 -7.447006,4.5c-6.623993,7.276978 -8.272995,7.89798 -16.867004,6.356995z" fill="#000000" id="path2211"/>
  <path d="m357.062988,238.632004c-2.822998,-3.005005 -2.743988,-4.802002 0.340027,-7.699005c2.090973,-1.964996 2.971985,-2.201996 5.231995,-1.406998c1.566986,0.550995 3.122986,2.106995 3.673981,3.673996c0.795013,2.26001 0.558014,3.141006 -1.406982,5.23201c-2.936005,3.125 -5.040009,3.178986 -7.83902,0.199997z" fill="#000000" id="path2209"/>
  <path d="m397.110992,235.389999c-4.188995,-2.934006 -1.673004,-10.444 3.5,-10.444c1.96701,0 5.278015,3.764008 5.278015,6c0,2.236008 -3.311005,6 -5.278015,6c-0.703003,0 -2.277985,-0.699997 -3.5,-1.556z" fill="#000000" id="path2207"/>
  <path d="m543.070007,213.242996c0.195007,-1.014999 1.942017,-2.147995 4.322998,-2.804001c2.197998,-0.606003 5.669006,-1.863998 7.713989,-2.796997c4.393005,-2.003998 7.781982,-2.194992 7.781982,-0.440002c0,1.383011 -7.237976,4.945999 -13.5,6.647003c-5.494995,1.492004 -6.700989,1.376999 -6.31897,-0.606003z" fill="#000000" id="path2203"/>
  <path d="m415.889008,191.445999c0,-0.824997 0.674988,-1.5 1.5,-1.5c0.824982,0 1.5,0.675003 1.5,1.5c0,0.824997 -0.675018,1.5 -1.5,1.5c-0.825012,0 -1.5,-0.675003 -1.5,-1.5z" fill="#000000" id="path2199"/>
  <path d="m409.889008,187.445999c0,-0.824997 0.674988,-1.5 1.5,-1.5c0.824982,0 1.5,0.675003 1.5,1.5c0,0.824997 -0.675018,1.5 -1.5,1.5c-0.825012,0 -1.5,-0.675003 -1.5,-1.5z" fill="#000000" id="path2197"/>
  <path d="m399.889008,178.445999c0,-0.824997 0.674988,-1.5 1.5,-1.5c0.824982,0 1.5,0.675003 1.5,1.5c0,0.824997 -0.675018,1.5 -1.5,1.5c-0.825012,0 -1.5,-0.675003 -1.5,-1.5z" fill="#000000" id="path2195"/>
  <path d="m349.889008,110.445999c0,-0.824997 0.674988,-1.5 1.5,-1.5c0.824982,0 1.5,0.675003 1.5,1.5c0,0.825005 -0.675018,1.5 -1.5,1.5c-0.825012,0 -1.5,-0.674995 -1.5,-1.5z" fill="#000000" id="path2193"/>
  <path d="m337.889008,104.445999c0,-0.824997 0.674988,-1.5 1.5,-1.5c0.824982,0 1.5,0.675003 1.5,1.5c0,0.825005 -0.675018,1.5 -1.5,1.5c-0.825012,0 -1.5,-0.674995 -1.5,-1.5z" fill="#000000" id="path2191"/>
  <path d="m327.139008,99.725998c-1.238007,-0.596794 -2.25,-1.417496 -2.25,-1.823799c0,-0.406197 -1.912994,-1.503395 -4.25,-2.438202c-2.338013,-0.934799 -7.063019,-3.055695 -10.5,-4.713097c-5.08902,-2.453499 -6.25,-3.458504 -6.25,-5.408897c0,-2.920204 1.380981,-3.0494 4.22998,-0.3955c1.181,1.099998 2.737,2 3.458008,2c0.721008,0 1.312012,0.449997 1.312012,1c0,0.549995 0.561981,0.998695 1.25,0.997101c1.890991,-0.004402 13.75,5.197495 13.75,6.031593c0,0.400703 1.350006,1.287804 3,1.971306c1.649994,0.683395 3,1.862999 3,2.6213c0,1.627197 -3.532013,1.710197 -6.75,0.158195z" fill="#000000" id="path2189"/>
  <path d="m98.388603,569.437012c2.750397,-0.817993 5.900398,-1.890015 7.000397,-2.382019c8.050003,-3.599976 13.721001,-6.695984 15.141998,-8.265991c0.917,-1.013 2.148003,-1.843018 2.736,-1.843018c1.524002,0 13.622009,-12.185974 13.622009,-13.721008c0,-0.703003 0.449997,-1.278992 1,-1.278992c0.549988,0 1,-0.680969 1,-1.513c0,-0.833008 0.421997,-2.294983 0.937988,-3.25c6.872009,-12.721008 8.06601,-20.88501 8.048004,-55.026978c-0.020996,-38.444 -1.845001,-108.227997 -2.927994,-112.005005c-0.508011,-1.770996 -1.422012,-12.104004 -2.032013,-22.962006c-0.610001,-10.858002 -1.621994,-21.542999 -2.247986,-23.742981c-2.972,-10.433014 0.40799,-79.646011 4.296997,-88.000015c0.511993,-1.100006 1.802994,-5.375 2.867996,-9.5c1.968994,-7.621994 5.384995,-17.753006 7.018997,-20.813004c0.496002,-0.927002 1.333008,-3.487 1.860001,-5.686996c0.527008,-2.199997 1.75,-6.25 2.716995,-9c4.064011,-11.557999 5.314011,-15.309998 6.99501,-21c0.973999,-3.300003 2.588989,-7.800003 3.58699,-10c0.998001,-2.199997 3.241013,-7.723999 4.983002,-12.274994c1.742996,-4.552002 3.557999,-8.516006 4.031998,-8.809006c0.475006,-0.292999 0.864014,-1.281998 0.864014,-2.197998c0,-1.429001 4.875,-12.435005 8.290985,-18.718002c0.598007,-1.099998 2.086014,-3.859001 3.308014,-6.132996c2.509995,-4.673004 4.473999,-7.285004 9.151001,-12.171005c1.786987,-1.8675 3.25,-3.878799 3.25,-4.469597c0,-1.584198 16.770996,-17.557205 20.390991,-19.421501c1.710007,-0.880203 3.783997,-2.358299 4.609009,-3.2845c2.248993,-2.525497 12.028,-9.019901 13.580994,-9.019901c0.746994,0 2.940002,-0.888699 4.873993,-1.9748c3.681,-2.0676 14.925995,-5.0252 19.106995,-5.0252c1.341003,0 2.438019,-0.450001 2.438019,-1c0,-0.590797 3.785004,-1.021599 9.25,-1.0527l9.25,-0.052597l-4.937012,-2.447403c-7.662994,-3.799198 -18.334991,-3.395798 -29.062988,1.098602c-13.188004,5.524899 -32.608002,15.804001 -33.343002,17.648399c-0.188004,0.472603 -2.100006,1.756302 -4.25,2.852699c-2.149002,1.096497 -3.906998,2.358704 -3.906998,2.804901c0,0.446198 -2.146011,2.2015 -4.768005,3.900803c-2.623001,1.699295 -6.559998,5.630493 -8.75,8.736099c-2.19101,3.105598 -5.557999,7.303596 -7.483002,9.328796c-1.925995,2.025299 -5.072006,5.706902 -6.992996,8.1819c-1.919998,2.474998 -4.957001,6.031998 -6.749008,7.903999c-1.791,1.872002 -3.256989,3.783005 -3.256989,4.247002c0,0.463997 -1.506012,2.532997 -3.345001,4.597c-1.840012,2.064003 -4.544006,5.824005 -6.009003,8.356003c-1.464996,2.530991 -3.522003,5.378998 -4.570007,6.328003c-1.048996,0.947998 -3.856995,4.90799 -6.240997,8.798996c-2.384995,3.889999 -6.244995,9.143005 -8.580002,11.671997c-2.334,2.528 -4.246994,5.022995 -4.25,5.542999c-0.002991,0.520004 -1.091995,2.095001 -2.418991,3.5c-2.776001,2.936996 -16.124008,29.065002 -17.142006,33.554001c-0.375,1.649994 -1.777,4.921997 -3.116997,7.270004c-2.970001,5.207001 -5.302002,12.627991 -5.317001,16.914993c-0.006004,1.751999 -0.509003,4.451996 -1.117004,6c-2.203995,5.602997 -4.718994,25.517014 -6.452995,51.094009c-0.346001,5.104004 -0.924004,10.375 -1.285004,11.714996c-1.090996,4.053986 0.266998,72.705994 1.494003,75.506012c0.601997,1.375 2.098999,7 3.326996,12.5c2.927002,13.109985 7.999001,29.5 9.129005,29.5c0.491997,0 0.894997,0.744995 0.894997,1.653992c0,1.488983 3.588997,10.156982 6.039001,14.583008c1.298996,2.347992 1.213997,11.65799 -0.160004,17.498993c-1.934998,8.222992 -6.332001,18.261993 -15.445,35.264008c-8.199997,15.297974 -29.307999,33.999969 -38.372894,33.999969c-1.2061,0 -3.052307,0.460022 -4.1026,1.02301c-1.050407,0.562012 -7.883305,1.466003 -15.184303,2.01001c-15.851799,1.179993 -22.911301,3.468994 -24.8055,8.041992c-1.005899,2.427979 -0.933401,3.330994 0.435101,5.419983c0.903,1.377991 2.081499,2.505005 2.618799,2.505005c0.537399,0 0.976999,1.351013 0.976999,3.002014c0,2.351013 1.244102,4.185974 5.75,8.479004c3.162502,3.012024 6.1175,5.487 6.5667,5.497986c1,0.026001 6.4827,4.018005 13.246101,9.64502c2.784599,2.315979 7.734596,5.822021 11,7.791016c5.762299,3.474976 6.231796,3.579956 15.937202,3.57196c5.921394,-0.005005 12.039299,-0.61499 15,-1.495972z" fill="#ff7f00" id="path2187"/>
  <path d="m711.291016,552.791992c4.178955,-4.484985 7.597961,-8.76001 7.597961,-9.5c0,-0.73999 0.900024,-1.346008 2,-1.346008c1.403015,0 2.003052,-0.669983 2.012024,-2.25c0.007019,-1.237 1.69397,-4.122986 3.75,-6.411987c7.992004,-8.901978 8.289001,-9.372009 7.208008,-11.391968c-1.112,-2.079041 -4.052979,-3.946045 -6.216003,-3.946045c-0.757996,0 -2.343018,0.900024 -3.523987,2c-1.18103,1.101013 -2.511047,2 -2.955994,2c-0.446045,0 -2.42804,1.100037 -4.406006,2.444031c-4.106995,2.791016 -14.197998,6.555969 -17.569031,6.555969c-2.890015,0 -11.041992,-1.927979 -14.299011,-3.382996c-2.294983,-1.024963 -9.597961,-5.615967 -12.862,-8.085999c-3.344971,-2.531982 -10.138,-10.125977 -10.138,-11.333984c0,-0.44101 -1.305969,-2.57901 -2.902954,-4.75c-3.638,-4.946991 -9.317017,-16.373993 -11.405029,-22.946991c-6.503967,-20.476013 -7.692017,-24.708008 -7.692017,-27.394012c0,-1.67099 -0.625,-4.515015 -1.388,-6.321991c-1.643005,-3.889008 -4.570984,-17.641022 -5.701965,-26.783997c-0.442017,-3.575012 -1.302002,-9.425018 -1.910034,-13c-2.791992,-16.416016 -4.393005,-33.646027 -5.898987,-63.5c-1.130981,-22.433014 -2.323975,-36.256012 -2.802979,-32.5c-0.981018,7.682983 -2.835022,14.820984 -4.455017,17.154999c-1.013977,1.459991 -1.843018,3.057983 -1.843018,3.552979c0,0.494019 -1.856995,2.77301 -4.125977,5.065002c-3.075012,3.105011 -5.869995,4.71701 -10.968994,6.326996c-6.809998,2.149017 -9.828003,2.042999 -16.093994,-0.563995c-1.348022,-0.559998 -1.783997,-0.027985 -2.158997,2.631012c-0.257996,1.833008 -1.192017,8.733002 -2.075989,15.333008c-0.883057,6.599976 -1.833008,13.237976 -2.110046,14.75c-0.281982,1.53299 -0.053955,2.75 0.514038,2.75c0.645996,0 1.019958,5.299988 1.019958,14.452972c0,7.950012 0.439026,15.487 0.976013,16.75c0.536987,1.264008 1.427002,8.372009 1.979004,15.797028c1.936035,26.069977 4.260986,40.695984 7.074036,44.5c0.406982,0.549988 1.647949,4.599976 2.758972,9c1.810974,7.178986 4.752014,14.200989 14.330994,34.220978c1.638,3.421997 3.405029,6.486023 3.929016,6.809021c0.52301,0.323975 0.951965,1.631958 0.951965,2.906982c0,1.275024 0.675049,2.879028 1.5,3.562988c0.825012,0.684998 1.5,1.804016 1.5,2.487c0,0.682007 1.058044,2.315002 2.353027,3.627014c2.089966,2.121033 6.231018,7.945984 9.185974,12.922974c1.994995,3.362 3.664001,4.893005 8.295044,7.611023c7.356995,4.319031 20.146973,6.169006 43.415955,6.281006c9.119019,0.044006 14.75,0.453003 14.75,1.070984c0,0.549988 2.43103,1 5.402039,1l5.401978,0l7.598022,-8.153992z" fill="#ba321a" id="path2185"/>
  <path d="m612.146973,247.695999c-0.21698,-1.787003 -0.751953,-4.149994 -1.187988,-5.25c-1.484985,-3.744995 -2.911011,-8.988998 -4.078003,-15c-0.640991,-3.300003 -1.575989,-6.781006 -2.078979,-7.735992c-0.502014,-0.955002 -0.913025,-2.294006 -0.913025,-2.977005c0,-4.238998 -11.442993,-36.787003 -12.93396,-36.787003c-0.390015,0 -2.808044,1.912994 -5.373047,4.25c-7.579956,6.906998 -10.978943,9.429001 -15.972961,11.856003c-2.596008,1.261002 -4.720032,2.626999 -4.720032,3.033997c0,0.408005 1.098999,3.806 2.442993,7.550995c2.824036,7.871002 9.557007,33.487 9.557007,36.363007c0,2.343002 0.675049,2.397995 5.379028,0.432007c2.781982,-1.162003 4.609985,-1.290009 7.872009,-0.549011c2.336975,0.529999 6.325012,1.230011 8.862,1.555008c3.434998,0.438995 11.21698,4.156998 13.463013,6.431c0.042969,0.041992 -0.100037,-1.38501 -0.318054,-3.173004z" fill="#ba321a" id="path2183"/>
  <path d="m164.063995,245.692993c5.871002,0.13501 11.834,0.687012 13.25,1.225006c2.460007,0.934998 2.575012,0.824005 2.575012,-2.496002c0,-1.912003 0.449997,-3.475998 1,-3.475998c0.549988,0 1,-2.25 1,-5c0,-2.75 0.449997,-5 1,-5c0.549988,0 1,-2.447998 1,-5.440994c0,-2.992004 0.449997,-5.719009 1,-6.059006c0.549988,-0.339005 1,-2.391006 1,-4.559006c0,-2.166992 0.449997,-3.940994 1,-3.940994c0.549988,0 1,-1.998001 1,-4.440994c0,-2.442001 0.449997,-4.719009 1,-5.059006c0.549988,-0.339005 1,-1.490997 1,-2.559006c0,-1.066986 0.449997,-1.940994 1,-1.940994c0.549988,0 1,-1.097992 1,-2.440994c0,-1.34201 0.449997,-2.719009 1,-3.059006c0.549988,-0.339005 1,-1.940994 1,-3.559006c0,-1.616989 0.449997,-2.940994 1,-2.940994c0.549988,0 1,-0.854004 1,-1.897995c0,-1.044006 1.349991,-4.465012 3,-7.602005c1.649994,-3.136002 3,-6.332001 3,-7.100998c0,-0.768997 0.449997,-1.399002 1,-1.399002c0.549988,0 1,-0.899994 1,-2c0,-1.100006 0.449997,-2 1,-2c0.549988,0 1,-0.798996 1,-1.776993c0,-0.977005 1.349991,-3.255005 3,-5.061005c1.649994,-1.807007 3,-3.707001 3,-4.223007c0,-0.515991 0.449997,-0.938995 1,-0.938995c0.549988,0 1.003998,-1.011993 1.007996,-2.25c0.00499,-1.348999 1.990997,-4.250992 4.957993,-7.25c2.722,-2.75 4.968002,-5.477997 4.990997,-6.061996c0.024002,-0.585007 1.393005,-2.35701 3.043015,-3.938004c1.649994,-1.580002 3,-3.375992 3,-3.989998c0,-0.614998 1.608994,-2.667999 3.575989,-4.563004c1.96701,-1.895996 4.410004,-5.246994 5.428009,-7.446999c1.01799,-2.199997 4.804001,-6.924995 8.412994,-10.5c3.608994,-3.574997 6.565994,-7.121696 6.572006,-7.882202c0.005997,-0.760498 0.839996,-2.110497 1.853989,-3c1.014008,-0.889496 2.027008,-2.168999 2.25,-2.8433c0.654999,-1.974701 15.100006,-16.273994 16.440002,-16.273994c0.671997,0 1.774017,-0.665703 2.449005,-1.479301c2.416992,-2.9123 7.321991,-4.520699 13.786011,-4.520699l6.461975,0l-1.61499,-2.464806c-0.889008,-1.355698 -1.61499,-3.157398 -1.61499,-4.003899c0,-0.979 -1.638,-1.976898 -4.5,-2.742599c-2.475006,-0.6619 -4.5,-1.5602 -4.5,-1.996098c0,-0.435902 -2.925018,-0.792603 -6.5,-0.792603c-3.667023,0 -6.5,0.435902 -6.5,1c0,0.549999 -1.097015,1 -2.438019,1c-3.867981,0 -15.010986,2.8237 -19.217987,4.869602c-2.113998,1.028397 -5.419006,2.6007 -7.343994,3.493996c-4.949005,2.296104 -6.921005,3.6222 -11.728012,7.886406c-2.324997,2.0625 -4.582993,3.75 -5.015991,3.75c-0.639999,0 -5.622009,4.222397 -12.755997,10.8116c-0.550003,0.507996 -2.125,2.353897 -3.5,4.101898c-1.375,1.748001 -5.096008,6.269997 -8.268005,10.050003c-5.863007,6.984993 -18.731995,30.992996 -18.731995,34.944992c0,1.085007 -0.389008,2.214005 -0.864014,2.507004c-0.473999,0.292999 -2.311996,4.257004 -4.082993,8.809006c-1.772003,4.550995 -4.037003,10.074997 -5.035004,12.274994c-0.998001,2.199997 -2.589996,6.699997 -3.537994,10c-0.947998,3.300003 -2.389999,7.800003 -3.20401,10c-3.176987,8.589005 -7.275986,21.764999 -7.275986,23.391006c0,0.939987 -0.414001,2.136993 -0.921005,2.658997c-1.309998,1.354004 -4.856003,11.587997 -7.257996,20.949997c-1.129013,4.399994 -2.389999,8.449997 -2.804001,9c-0.41301,0.550003 -1.05101,3.356003 -1.417007,6.236008l-0.664993,5.235001l3.781998,-2.235001c3.371002,-1.992004 4.944992,-2.209 14.457993,-1.989014z" fill="#ba321a" id="path2181"/>
  <path d="m191.779007,248.309998c1.963989,-1.375 2.252991,-2.255005 1.815994,-5.515991c-0.285995,-2.134003 -0.145996,-5.110001 0.311005,-6.614014c1.174988,-3.86499 3.028992,-14.003998 3.424988,-18.733994c0.455002,-5.425995 3.393005,-18.315002 5.014008,-22c0.727005,-1.649994 1.649002,-4.125 2.048996,-5.5c0.641998,-2.205002 7.757996,-17.078995 10.764008,-22.5c0.610001,-1.100006 1.914993,-3.645996 2.899994,-5.658997c0.985001,-2.013 2.158005,-3.813004 2.608002,-4c0.449005,-0.186996 2.533997,-3.490997 4.632004,-7.341003c2.098999,-3.850006 4.147995,-7.225006 4.554001,-7.5c0.404999,-0.274994 1.996994,-2.524994 3.535995,-5c3.285995,-5.283997 14.065002,-18.942001 20.501007,-25.973999c1.375,-1.501999 3.162994,-3.698997 3.972992,-4.882004c0.809998,-1.182999 2.174988,-2.372993 3.033997,-2.645996c0.858002,-0.272003 2.304016,-1.753998 3.213013,-3.292999c0.908997,-1.539497 2.806,-3.4161 4.216003,-4.1707c1.409973,-0.754402 2.563995,-1.8396 2.563995,-2.4114c0,-0.892601 5.514984,-6.419998 12.5,-12.527901c1.100006,-0.961899 4.362,-3.064102 7.248993,-4.6717c6.899994,-3.842201 6.826996,-5.422798 -0.248993,-5.422798c-3.024994,0 -5.5,0.449997 -5.5,1c0,0.549995 -0.800995,1 -1.779999,1c-0.977997,0 -2.428009,0.899994 -3.220001,2c-0.792999,1.099998 -2.024994,2 -2.737,2c-1.688995,0 -16.263,14.574196 -16.263,16.2631c0,0.712494 -0.899994,1.944 -2,2.7369c-1.100006,0.792801 -2,2.038895 -2,2.768997c0,0.730499 -3.150009,4.434502 -7,8.230499c-3.850006,3.796997 -7,7.600998 -7,8.452003c0,0.851997 -0.450012,1.547997 -1,1.547997c-0.550003,0 -1,0.710999 -1,1.579002c0,0.867996 -1.800003,3.307999 -4,5.420998c-2.200012,2.113998 -4,4.373001 -4,5.020996c0,0.647003 -1.350006,2.438004 -3,3.979004c-1.650009,1.542007 -3,3.326996 -3,3.966995c0,0.639999 -2.25,3.355011 -5,6.033005c-3.01001,2.932007 -5,5.746994 -5,7.070999c0,1.210007 -1.013,3.152008 -2.25,4.315002c-2.983002,2.802994 -5.75,7.173004 -5.75,9.078995c0,0.845001 -0.450012,1.535004 -1,1.535004c-0.550003,0 -1,0.899994 -1,2c0,1.100006 -0.450012,2 -1,2c-0.550003,0 -1,0.899994 -1,2c0,1.100006 -0.450012,2 -1,2c-0.550003,0 -1,0.899994 -1,2c0,1.100006 -0.450012,2 -1,2c-0.550003,0 -1,0.899994 -1,2c0,1.100006 -0.450012,2 -1,2c-0.550003,0 -1,1.350006 -1,3c0,1.649994 -0.450012,3 -1,3c-0.550003,0 -1,1.350006 -1,3c0,1.649994 -0.450012,3 -1,3c-0.550003,0 -1,1.350006 -1,3c0,1.649994 -0.450012,3 -1,3c-0.550003,0 -1,0.899994 -1,2c0,1.100006 -0.450012,2 -1,2c-0.550003,0 -1,2.25 -1,5c0,2.75 -0.450012,5 -1,5c-0.550003,0 -1,1.800003 -1,4c0,2.199997 -0.450012,4 -1,4c-0.556015,0 -1,2.667007 -1,6c0,3.334 -0.445007,6 -1,6c-0.550003,0 -1,2.25 -1,5c0,2.75 -0.450012,5 -1,5c-1.452011,0 -1.230011,4.740997 0.25,5.337997c2.473999,0.999008 5.346985,0.633011 7.639999,-0.973999z" fill="#ff7f00" id="path2179"/>
  <path d="m498.389008,207.425003c-2.75,-1.296005 -5.690002,-2.382996 -6.53302,-2.417007c-1.86499,-0.074997 -14.748993,-6.733994 -17.30899,-8.945999c-1.013,-0.875992 -3.779999,-2.722 -6.14801,-4.104004c-2.367981,-1.380997 -6.039001,-3.689987 -8.15799,-5.12999c-4.911011,-3.337006 -20.35199,-18.387009 -20.35199,-19.835999c0,-0.602997 -2.700012,-3.998001 -6,-7.546005c-3.300018,-3.546997 -6,-7.117004 -6,-7.934006c0,-0.815994 -1.08902,-2.514999 -2.419006,-3.774994c-2.924011,-2.768997 -13.179016,-20.209999 -14.110992,-23.999001c-0.367004,-1.489998 -1.296997,-3.233002 -2.069,-3.873001c-0.770996,-0.639999 -1.401001,-1.812996 -1.401001,-2.607994c0,-0.794006 -1.014008,-2.876007 -2.253021,-4.627007c-1.238983,-1.750999 -2.745972,-4.076996 -3.349976,-5.169998c-0.604004,-1.092003 -2.987,-3.342003 -5.295013,-5c-2.307983,-1.656998 -5.067993,-4.475998 -6.134003,-6.263496c-1.066986,-1.787506 -2.56601,-3.25 -3.330994,-3.25c-0.765991,0 -1.958008,-0.6819 -2.649994,-1.515205c-1.852997,-2.232201 -10.772003,-6.484795 -13.601013,-6.484795c-1.346985,0 -2.708008,-0.675003 -3.024994,-1.5c-0.338013,-0.880699 -1.872986,-1.514702 -3.717987,-1.5355c-1.729004,-0.019402 -4.268005,-0.678505 -5.643005,-1.4645c-1.375,-0.786003 -3.97702,-1.445099 -5.78302,-1.4646c-1.804993,-0.019501 -4.954987,-0.735802 -7,-1.591705c-6.358002,-2.661697 -31.948975,-5.528198 -35.880981,-4.019196c-1.475006,0.565994 -1.449005,0.778 0.259979,2.071198c1.047028,0.792397 2.871002,1.455002 4.054016,1.472504c3.178986,0.046997 11.242004,4.042099 16.194,8.0243c2.388,1.920799 8.748993,5.745796 14.13501,8.5c5.384979,2.754097 11.914001,6.806999 14.507996,9.006996c9.940979,8.432999 16.513,14.857002 16.513,16.143997c0,0.736 1.28299,2.580002 2.85199,4.098007c1.569,1.516998 3.348999,3.704994 3.957001,4.862c0.606995,1.15799 2.701996,4.015991 4.653992,6.352997c1.953003,2.337006 3.846008,5.440002 4.208008,6.895996c0.562988,2.268005 4.334015,9.544998 8.623016,16.641998c1.176971,1.949005 11.507996,14.190002 14.921997,17.682007c0.942993,0.966003 3.417999,2.843002 5.5,4.173004c2.080994,1.328995 5.093994,3.55899 6.695984,4.955002c1.60202,1.395996 4.752014,3.354996 7,4.353989c2.248016,0.998001 4.959991,2.609009 6.026001,3.578003c1.06601,0.970001 2.235016,1.763 2.597015,1.763c0.362,0 1.695984,0.899994 2.964996,2c1.268005,1.100006 2.899994,2 3.627991,2c0.72699,0 4.151001,1.296005 7.609009,2.880005c8.290985,3.796997 15.298004,6.136002 20.23999,6.75499c6.990997,0.876007 19.906006,2.076004 23.02301,2.139008c2.72998,0.054993 2.549988,-0.152008 -2,-2.294998z" fill="#ff7f00" id="path2177"/>
  <path d="m527.888977,207.684998c3.025024,-0.287994 7.300049,-1.358994 9.5,-2.380997c3.425049,-1.591003 3.954041,-2.253006 3.683044,-4.608002c-0.366028,-3.181 -0.402039,-3.188995 -6.255005,-1.384995c-12.769043,3.93399 -21.92804,4.825989 -21.92804,2.134995c0,-0.960999 0.988037,-1.511993 2.75,-1.535004c3.192017,-0.041 11.329041,-1.918991 19.395996,-4.474991c5.357056,-1.697998 5.677002,-1.986008 6.262024,-5.639008c0.750977,-4.699997 3.59198,-5.445999 3.59198,-0.944c0,2.38501 0.348022,2.815002 1.942017,2.39801c1.888,-0.493011 2.22998,-1.392014 3.63501,-9.555008c0.492981,-2.865997 1.115967,-3.75 2.641968,-3.75c1.655029,0 1.88501,0.449005 1.341003,2.617004c-1.97998,7.888992 -1.97699,8.757996 0.031006,7.970001c1.050049,-0.411011 3.934021,-1.443008 6.408997,-2.292007c2.475037,-0.848999 6.381042,-2.83699 8.679993,-4.418991c4.926025,-3.388 6.320007,-3.586014 6.320007,-0.896011c0,2.542999 -8.088989,7.24501 -17.25,10.028c-6.587952,2.001007 -6.75,2.131012 -6.75,5.411011l0,3.360992l5.75,-2.858002c3.162048,-1.571991 6.334045,-2.873001 7.049011,-2.889999c3.236023,-0.078003 8.63501,-3.755997 19.200989,-13.082993c2.475037,-2.184006 5.850037,-4.792999 7.5,-5.798004c1.650024,-1.003998 3.617004,-2.574005 4.372009,-3.488007c0.755005,-0.914993 1.954041,-1.662994 2.665039,-1.662994c0.710999,0 2.566956,-1.350006 4.125,-3c1.556946,-1.649994 3.289001,-3 3.848999,-3c0.559998,0 3.823975,-2.886002 7.252991,-6.412994c4.161987,-4.281006 6.235962,-7.219009 6.235962,-8.834c0,-4.639008 -1.980957,-4.175003 -8.846985,2.070999c-2.01001,1.828003 -5.968018,4.425003 -8.796997,5.772003c-2.828003,1.347 -6.414978,3.44899 -7.968994,4.671997c-3.864014,3.039001 -17.880981,7.638 -23.437012,7.690002c-2.502991,0.022995 -5.036011,0.528 -5.630005,1.121994c-1.703003,1.703003 -30.96698,-0.757996 -35.089966,-2.949997c-0.952026,-0.507004 -5.223999,-1.246002 -9.494995,-1.643997c-4.27002,-0.39801 -8,-1.105011 -8.289001,-1.572006c-0.52002,-0.841995 -9.656036,-5.374008 -16.52301,-8.195999c-7.015015,-2.884003 -22.407013,-15.837006 -26.527008,-22.324005c-1.011017,-1.591995 -3.938995,-5.368996 -6.507996,-8.393997c-4.296021,-5.057999 -20.888,-35.673203 -20.888,-38.541397c0,-0.667305 -0.675018,-1.773399 -1.5,-2.458099c-0.825012,-0.6847 -1.5,-1.9226 -1.5,-2.7509c0,-1.492805 -2.433014,-4.683304 -10.873993,-14.259102c-3.88501,-4.4072 -12.870026,-9.990002 -16.078003,-9.990002c-1.096008,0 -2.597015,-0.6441 -7.048004,-3.024498c-1.375,-0.735302 -5.425018,-1.907001 -9,-2.603901c-3.575012,-0.696899 -8.524994,-1.721001 -11,-2.275799c-2.475006,-0.554802 -7.511017,-1.028301 -11.19101,-1.052299c-3.679993,-0.023903 -6.968994,-0.493504 -7.30899,-1.043503c-0.748993,-1.210899 -16.166016,-1.350597 -16.906006,-0.153297c-0.287994,0.465797 -5.085999,1.124798 -10.664001,1.4646c-5.576996,0.339798 -10.686005,1.0709 -11.352997,1.624798c-0.667999,0.553902 -3.65799,1.517902 -6.645996,2.1422c-2.987,0.624401 -5.859009,1.537201 -6.381012,2.0285c-0.52301,0.491199 -1.949005,0.8932 -3.169006,0.8932c-2.399994,0 -8.36499,3.026802 -8.375,4.25c-0.003998,0.412502 -0.681,0.75 -1.505981,0.75c-2.496002,0 -1.880005,5.813 0.876007,8.267902c2.135986,1.903198 3.389984,2.0895 12.425995,1.846802c10.990997,-0.295204 22.033997,1.069099 32.352997,3.996994c3.660004,1.038506 7.542999,1.888306 8.627991,1.888306c1.084991,0 3.588013,0.674995 5.562012,1.5c1.975006,0.824997 4.674988,1.5 6,1.5c1.324982,0 2.970001,0.674995 3.654999,1.5c0.68399,0.824997 2.117004,1.5 3.18399,1.5c2.48999,0 12.235016,4.595398 13.835999,6.5242c0.673004,0.811699 1.838989,1.4758 2.589996,1.4758c0.75,0 2.498993,1.796494 3.88501,3.992294c1.385986,2.195801 4.290009,5.109802 6.45401,6.475204c2.162994,1.365997 4.675995,4.048996 5.583984,5.961998c0.90799,1.913002 2.283997,4.003998 3.05899,4.647003c0.774017,0.642998 1.40802,1.958 1.40802,2.922997c0,0.966003 0.645996,2.292 1.434998,2.946999c0.790009,0.654999 1.716003,2.466003 2.057983,4.024002c0.81601,3.717003 12.22702,22.984993 14.019012,23.672997c0.764984,0.292999 1.877014,2.005997 2.471008,3.806c0.593994,1.80101 3.121979,5.473007 5.617981,8.162003c2.496002,2.688995 5.141998,6.027008 5.880005,7.419006c1.304016,2.457001 10.272003,11.968994 11.286011,11.968994c0.277008,0 1.460999,1.013 2.631989,2.25c1.171021,1.238007 3.921997,3.576996 6.115021,5.197998c2.191986,1.621002 4.210999,3.195999 4.485992,3.5c0.274994,0.304001 2.074982,1.406006 4,2.449997c1.924988,1.044006 4.212982,2.509003 5.084991,3.256012c2.420013,2.07399 16.031006,8.92099 19.398987,9.759995c1.641022,0.408005 5.241028,1.766006 8,3.016006c2.759003,1.250992 5.69101,2.547989 6.516022,2.882996c1.497986,0.608994 7.616974,0.412994 17.999969,-0.574005z" fill="#ba321a" id="path2175"/>
  <path d="m579.888977,175.445999c0,-0.824997 0.675049,-1.5 1.5,-1.5c0.825012,0 1.5,0.675003 1.5,1.5c0,0.824997 -0.674988,1.5 -1.5,1.5c-0.824951,0 -1.5,-0.675003 -1.5,-1.5z" fill="#000000" id="path2173"/>
  <path d="m547.307007,201.339005c1.682007,-0.645004 2.278015,-6.393005 0.662964,-6.393005c-2.631958,0 -4.080994,1.459 -4.080994,4.106995c0,2.950012 0.615051,3.362 3.41803,2.286011z" fill="#000000" id="path2171"/>
  <path d="m562.388977,166.945999c0.340027,-0.550003 2.504028,-1.009995 4.809021,-1.022995c6.651001,-0.03801 19.718994,-3.992004 23.190979,-7.016998c1.100037,-0.958008 4.700012,-3.102005 8,-4.764008c3.300049,-1.662003 7.744019,-4.636002 9.875,-6.608994c2.132019,-1.972 4.494019,-3.587006 5.25,-3.587006c0.756042,0 1.375,-0.449997 1.375,-1c0,-1.850998 -3.47699,-1.016998 -6.5,1.561005c-1.649963,1.406998 -4.028992,3.442001 -5.284973,4.522003c-4.703979,4.043991 -10.494995,5.153 -20.539978,3.931992c-5.046021,-0.613998 -9.603027,-1.542999 -10.125,-2.065002c-0.52301,-0.522003 -2.015015,-0.949997 -3.315002,-0.949997c-3.981018,0 -12.528015,-4.085007 -16.512024,-7.891006c-4.072021,-3.890991 -9.94397,-9.921997 -16.055969,-16.488991c-2.108032,-2.265999 -5.03302,-6.256004 -6.5,-8.868004c-1.467041,-2.612 -2.982056,-4.75 -3.366028,-4.750999c-0.38501,0 -2.067017,-2.865997 -3.737976,-6.367996c-1.671997,-3.501999 -3.720032,-6.932205 -4.551025,-7.622406c-0.832031,-0.6903 -1.512024,-1.656296 -1.512024,-2.146698c0,-3.811897 -31.427979,-34.9184 -41.658966,-41.2337c-3.235016,-1.996399 -6.378998,-3.6297 -6.989014,-3.6297c-0.609009,0 -1.696991,-0.710098 -2.416992,-1.577999c-1.501007,-1.8088 -10.934998,-6.798698 -10.934998,-5.783901c0,0.369503 -0.787994,-0.021198 -1.75,-0.868397c-2.934021,-2.582302 -14.490021,-7.415001 -23.25,-9.723602c-2.475006,-0.652199 -7.259003,-2.054399 -10.632019,-3.115999c-3.371979,-1.0616 -7.279999,-1.930099 -8.68399,-1.930099c-1.404999,0 -5.846008,-0.711901 -9.868988,-1.582001c-4.02301,-0.8701 -9.339996,-1.751301 -11.815002,-1.9582c-2.475006,-0.206999 -6.524994,-0.9328 -9,-1.612999c-2.843018,-0.7812 -11.684021,-1.2463 -24,-1.2626c-19.437012,-0.025801 -19.518005,-0.0168 -24.877014,2.775799c-2.957001,1.540901 -6.464996,3.890301 -7.794983,5.2208c-1.331024,1.330601 -3.031006,2.419201 -3.779022,2.419201c-3.190002,0 -21.083984,20.7987 -19.368988,22.5138c0.696014,0.696301 4.820007,-0.698502 4.820007,-1.630501c0,-0.485798 1.259979,-0.883301 2.799988,-0.883301c1.540009,0 3.22699,-0.402 3.75,-0.8932c0.522003,-0.491299 3.394012,-1.404099 6.381012,-2.0285c2.988007,-0.624298 5.977997,-1.588299 6.645996,-2.1422c0.666992,-0.553898 5.776001,-1.285 11.352997,-1.624798c5.578003,-0.339802 10.376007,-0.998802 10.664001,-1.4646c0.744995,-1.204201 21.154999,-1.061401 21.906006,0.153297c0.339996,0.549999 3.628998,1.026802 7.30899,1.059601c3.679993,0.032799 8.716003,0.453602 11.19101,0.9352c12.888,2.507599 19.036987,3.988102 21.153992,5.093002c4.524994,2.361797 5.828003,2.912197 6.894012,2.912197c2.988983,0 12.194,5.562099 15.593994,9.4231c8.079987,9.173805 11.358002,13.465805 11.358002,14.874199c0,0.801804 0.674988,2.018005 1.5,2.702705c0.824982,0.6847 1.5,1.790794 1.5,2.458099c0,2.846199 16.592987,33.486397 20.871979,38.541397c2.561005,3.025002 5.955017,7.423004 7.544006,9.772995c8.165009,12.083008 36.425995,29.249008 50.583984,30.726013c3.575012,0.372986 8.42804,1.312988 10.785034,2.089996c2.356018,0.776001 6.630981,1.417999 9.5,1.427002c2.867981,0.007996 5.890015,0.450989 6.714966,0.983994c1.977051,1.278 10.710022,1.278 11.5,0z" fill="#ff7f00" id="path2169"/>
  <path d="m394.170013,154.945999c0.769989,0 0.79599,-0.322006 0.085999,-1.031998c-1.176025,-1.175995 -4.367004,-0.264999 -4.367004,1.246002c0,0.550003 0.710999,0.72699 1.580994,0.39299c0.869995,-0.332993 2.084991,-0.606995 2.700012,-0.606995z" fill="#e8cdba" id="path2167"/>
  <path d="m576.888977,147.389999c0,-1.679993 -4.875,-11.931 -7.738953,-16.272995c-0.968994,-1.469009 -2.814026,-4.921005 -4.101013,-7.671005c-4.463989,-9.538002 -5.666016,-11.858002 -6.692993,-12.926003c-0.567993,-0.589996 -2.131042,-2.648994 -3.473022,-4.573997c-3.020996,-4.333 -3.588013,-5.040001 -8.234985,-10.281197c-2.057007,-2.320099 -4.531982,-5.118301 -5.5,-6.2183c-0.968018,-1.100006 -4.22699,-5.150002 -7.244019,-9c-3.016968,-3.850006 -7.96698,-9.325401 -11,-12.167603c-3.03302,-2.842102 -6.416992,-6.054199 -7.518005,-7.137798c-1.10199,-1.083702 -3.801971,-3.028603 -6,-4.322102c-2.198975,-1.293499 -5.301971,-3.594002 -6.895996,-5.112202c-1.593994,-1.5182 -3.421997,-2.7603 -4.062988,-2.7603c-0.640015,0 -2.485992,-1.380199 -4.101013,-3.067101c-2.869995,-2.996399 -19.16098,-12.932899 -21.204987,-12.932899c-1.091003,0 -9.080017,-4.110298 -15.708008,-8.081398c-2.186005,-1.310202 -4.445007,-2.390301 -5.019989,-2.400301c-0.575012,-0.010099 -3.061005,-0.859699 -5.524994,-1.888c-7.638,-3.188099 -8.393005,-3.460699 -11.479004,-4.141499c-12.860016,-2.836801 -34.303009,-3.526401 -55.561005,-1.786701c-13.871002,1.1351 -17.136017,2.486 -8.438995,3.4918c7.707977,0.8916 22.850983,3.438801 28,4.710001c2.199982,0.5432 6.475006,1.257999 9.5,1.588598c3.024994,0.330502 7.975006,1.4377 11,2.460501c3.024994,1.022699 7.299988,2.151001 9.5,2.507299c8.972992,1.4531 31.664978,12.314102 49,23.452499c6.561005,4.215801 33.5,29.076599 33.5,30.915703c0,0.401398 1.501984,2.291702 3.337982,4.2006c3.580017,3.720802 11.661987,16.566399 11.661987,18.5354c0,0.654999 0.658997,1.737999 1.46405,2.405998c0.805969,0.667999 3.097961,3.677002 5.094971,6.684998c1.997009,3.009003 4.825989,6.750999 6.286011,8.316002c1.459961,1.565002 4.171021,4.721008 6.024963,7.013c1.854004,2.292999 4.392029,4.634003 5.640015,5.201996c1.249023,0.569 2.81604,2.054001 3.483032,3.30101c1.310974,2.44899 11.540955,7.502991 15.237976,7.528c1.247986,0.007996 2.944031,0.450989 3.768982,0.983994c2.143005,1.386002 3,1.227005 3,-0.556z" fill="#ba321a" id="path2165"/>
  <path d="m290.075989,55.263401c-0.721985,-0.288902 -1.583984,-0.253403 -1.916992,0.078899c-0.332001,0.332298 0.259003,0.5686 1.312988,0.5252c1.165009,-0.048 1.402008,-0.284901 0.604004,-0.604099z" fill="#000000" id="path2161"/>
  <path d="m570.125977,352.770508a68.712601,68.712601 0 1 1 -137.424988,0a68.712601,68.712601 0 1 1 137.424988,0z" fill="#ffaaaa" opacity="0.75" id="path3235"/>
  <path d="m390.663422,512.560486c-2.199982,-0.690002 -6.475006,-1.795013 -9.5,-2.455017c-10.575989,-2.310974 -16.580963,-4.449951 -28.516998,-10.16095c-3.309021,-1.583008 -6.59198,-2.879028 -7.296021,-2.879028c-0.703003,0 -3.391968,-1.125 -5.974976,-2.5c-2.583008,-1.375 -5.177979,-2.5 -5.766968,-2.5c-0.58905,0 -2.365051,-1.349976 -3.945007,-3c-1.765015,-1.841003 -3.888,-3 -5.5,-3c-1.613007,0 -3.736023,-1.15802 -5.5,-3c-1.580994,-1.650024 -3.465027,-3 -4.187012,-3c-0.723022,0 -1.312988,-0.491028 -1.312988,-1.091003c0,-1.167999 -2.375,-4.499023 -8,-11.223969c-4.590027,-5.48703 -8,-10.38504 -8,-11.489044c0,-0.487 -0.890015,-1.690002 -1.977051,-2.674011c-1.086975,-0.983978 -1.772949,-2.117981 -1.523987,-2.519989c0.249023,-0.402985 -0.85199,-2.704987 -2.445984,-5.116974c-1.593994,-2.411011 -3.224976,-5.694 -3.623993,-7.294006c-0.399994,-1.600006 -1.779022,-4.75 -3.06601,-7c-1.286011,-2.25 -2.344971,-5.083008 -2.350983,-6.29599c-0.006989,-1.212982 -1.149017,-3.880035 -2.537994,-5.927032c-1.389038,-2.046997 -2.753998,-4.878967 -3.033997,-6.294006c-0.281006,-1.415985 -0.944031,-3.954956 -1.475037,-5.644989c-0.531006,-1.688995 -0.97998,-4.389008 -0.997009,-6c-0.017975,-1.609955 -0.604004,-3.681 -1.303955,-4.601959c-1.180054,-1.551025 -1.515015,-1.555054 -4.629028,-0.046997c-2.187012,1.059998 -3.911011,2.945953 -4.945984,5.412964c-0.874023,2.083008 -1.94101,3.791992 -2.371033,3.796997c-1.606995,0.020996 -1.732971,-2.710999 -0.282959,-6.179962c1.197998,-2.867035 2.828979,-4.253998 8.149963,-6.928009c7.199036,-3.617004 13.661011,-10.139038 15.488037,-15.632019c0.598999,-1.800018 1.772003,-3.25 2.628967,-3.25c2.117004,0 0.97702,5.64801 -1.718018,8.516998c-1.090942,1.161987 -1.983948,2.515991 -1.983948,3.009979c0,0.494019 -1.894043,2.827026 -4.209045,5.186035c-2.313965,2.357971 -3.705994,4.286987 -3.091949,4.286987c0.616974,0 1.334991,2.348022 1.605988,5.25c0.269989,2.888 0.796997,6.599976 1.169983,8.25c0.900024,3.974976 4.617981,11.5 5.682007,11.5c0.463013,0 0.843018,1.281006 0.843018,2.846985c0,2.93103 2.403992,8.66803 4.062988,9.692993c0.515015,0.318024 0.937012,1.423035 0.937012,2.454041c0,2.218994 1.307983,5.375 3.940979,9.505981c1.052002,1.650024 1.945007,3.718018 1.986023,4.595978c0.039978,0.877045 0.972961,2.409027 2.072998,3.404022c1.099976,0.995972 2,2.171021 2,2.611023c0,1.891998 6.201965,9.929993 16.876953,21.872986c4.256042,4.761963 5.988037,6.015991 8.30603,6.015991c1.940002,0 3.838989,0.974976 5.622986,2.885986c1.481018,1.587036 3.788025,3.218018 5.125,3.625c1.337036,0.406006 3.812012,1.580994 5.5,2.610992c1.687988,1.029022 3.84198,1.873016 4.788025,1.875c0.945984,0.002045 3.195984,0.824005 5,1.826996c9.045959,5.027008 27.134979,10.996033 38.524963,12.710999c2.335022,0.35202 4.499023,1.050018 4.809021,1.552032c0.747986,1.209991 22.982971,1.180969 25.210022,-0.032013c0.954956,-0.520996 4.886963,-1.916992 8.736969,-3.102966c7.567993,-2.331055 33.980988,-14.738037 37.597015,-17.660034c12.961975,-10.475983 24.633972,-21.980988 27.070984,-26.68399c1.109985,-2.141022 3.583008,-6.120026 5.497009,-8.84201c1.913025,-2.722015 3.23999,-5.567993 2.949982,-6.324982c-0.289978,-0.757019 -0.090973,-1.645996 0.443024,-1.975983c1.651978,-1.022034 4.941986,-8.253021 4.941986,-10.866028c0,-1.364014 0.450012,-2.758972 1,-3.098999c0.550018,-0.338989 1.001007,-2.054016 1.003021,-3.80899c0.001984,-1.755005 0.901978,-4.664032 2,-6.465027c1.200012,-1.96701 1.997009,-5.036957 1.997009,-7.69101c0,-2.428955 0.449951,-4.694946 1,-5.034973c0.549988,-0.338989 1,-2.616028 1,-5.05899c0,-2.441986 0.449951,-4.44101 1,-4.44101c0.549988,0 0.98999,-2.137024 0.979004,-4.75c-0.02002,-4.72699 -0.044006,-4.760986 -5.046997,-7.041016c-2.765045,-1.26001 -5.307037,-3.059967 -5.650055,-4c-0.341949,-0.939972 -1.67099,-2.980957 -2.952972,-4.534973c-2.662018,-3.231018 -3.183014,-8.674011 -0.82901,-8.674011c0.902985,0 1.5,0.926025 1.5,2.325989c0,1.278992 1.125,3.382996 2.5,4.674011c1.375,1.291992 2.5,2.886993 2.5,3.543976c0,0.658051 4.188019,3.26001 9.307037,5.784027c10.171936,5.015015 12.096985,6.65802 13.092957,11.171997c1.133972,5.13501 1.132019,5.774017 -0.013,6.18103c-1.091003,0.386963 -2.973999,-3.32901 -3.580994,-7.064056c-0.169006,-1.03598 -1.880981,-2.72998 -3.80603,-3.764954l-3.5,-1.881042l-0.309998,4.765045c-0.170959,2.619995 -0.732971,5.191956 -1.249939,5.713959c-0.517029,0.523041 -0.940002,2.409027 -0.940002,4.19101c0,1.78302 -0.450012,3.52002 -1,3.859009c-0.550049,0.340027 -1,2.882996 -1,5.651978c0,3.519043 -0.602051,5.798004 -2,7.57605c-1.205017,1.530945 -2,4.055969 -2,6.347961c0,2.094025 -0.450012,4.085022 -1.000031,4.424011c-0.549988,0.340027 -1.008972,1.604004 -1.019012,2.80899c-0.008972,1.206024 -1.359009,4.626038 -3,7.600983c-1.639954,2.976013 -2.980988,6.183044 -2.980988,7.128021c0,0.945007 -0.674988,2.278015 -1.5,2.962006c-0.824982,0.685028 -1.5,1.796021 -1.5,2.468018c0,0.671997 -0.858978,2 -1.908966,2.949982c-1.050049,0.949982 -2.470032,3.082977 -3.157043,4.740997c-1.33197,3.216003 -16.524963,19.086975 -19.284973,20.145996c-0.906982,0.348022 -1.649017,1.321991 -1.649017,2.164001c0,0.84201 -0.563019,1.53299 -1.25,1.534027c-0.688019,0.001007 -2.705963,1.238953 -4.485016,2.75c-2.992004,2.540955 -6.772949,4.570953 -24.264984,13.024994c-3.574982,1.727966 -10.100006,4.294983 -14.5,5.704987c-4.399994,1.409973 -8.782013,3.003021 -9.736969,3.540009c-2.452026,1.380005 -25.455994,0.977966 -30.263031,-0.528015z" fill="#000000" id="path2217"/>
 </g>
</svg>