<?xml version="1.0"?><svg width="517.044" height="526.13" xmlns="http://www.w3.org/2000/svg">

 <g>
  <title>Layer 1</title>
  <g id="g5">
   <path fill-rule="evenodd" stroke="black" stroke-width="0.036" stroke-miterlimit="10" id="path7" d="m51.257999,283.256989c0,134.100006 88.632,242.855011 197.964001,242.855011c109.297012,0 197.929001,-108.756012 197.929001,-242.855011c0,-134.100983 -88.631989,-242.855988 -197.929001,-242.855988c-109.332001,-0.000999 -197.964001,108.755005 -197.964001,242.855988l0,0z"/>
   <path fill="#e8ccba" fill-rule="evenodd" stroke="black" stroke-width="0.036" stroke-miterlimit="10" id="path9" d="m55.470001,283.687988c0,131.868011 87.119995,238.824036 194.580002,238.824036c107.460007,0 194.580002,-106.956024 194.580002,-238.824036c0,-131.903992 -87.119995,-238.859989 -194.580002,-238.859989c-107.460999,0 -194.580002,106.955997 -194.580002,238.859989l0,0z"/>
   <path fill-rule="evenodd" stroke="black" stroke-width="0.036" stroke-miterlimit="10" id="path11" d="m212.753006,239.300003c0,6.623993 5.975998,12.024002 13.319992,12.024002c7.380005,0 13.320007,-5.400009 13.320007,-12.024002c0,-6.624008 -5.940002,-12.024002 -13.320007,-12.024002c-7.343994,0 -13.319992,5.399994 -13.319992,12.024002l0,0z"/>
   <path fill="white" fill-rule="evenodd" stroke="black" stroke-width="0.036" stroke-miterlimit="10" id="path13" d="m219.485992,237.104004c0,2.015991 1.62001,3.636002 3.600006,3.636002c2.016006,0 3.636002,-1.62001 3.636002,-3.636002c0,-1.980011 -1.619995,-3.600006 -3.636002,-3.600006c-1.981003,0 -3.600006,1.619995 -3.600006,3.600006l0,0z"/>
   <path fill-rule="evenodd" stroke="black" stroke-width="0.036" stroke-miterlimit="10" id="path15" d="m206.020996,210.464005c2.376007,-1.872009 7.236008,-4.716003 11.268005,-6.156006c3.923996,-1.511993 8.712006,-2.772003 11.987991,-2.807999c3.168015,-0.143997 6.372009,0.899994 6.984009,2.016006c0.539993,1.079987 -1.188004,3.491989 -3.671997,4.463989c-2.664001,0.792007 -8.028,-0.215988 -11.664001,0.863998c-3.779999,1.116013 -7.524002,3.636002 -10.115997,5.328003c-2.520004,1.475998 -4.068008,3.779999 -5.184006,3.996002c-1.404007,0.072006 -2.195999,-1.511993 -2.231995,-2.807999c0.000992,-1.440002 0.324997,-3.024002 2.627991,-4.895996l0,0z"/>
   <path fill-rule="evenodd" stroke="black" stroke-width="0.036" stroke-miterlimit="10" id="path17" d="m282.450012,238.363998c0,6.516006 -5.940002,11.772003 -13.320007,11.772003c-7.343994,0 -13.320007,-5.255997 -13.320007,-11.772003c0,-6.479996 5.97699,-11.735992 13.320007,-11.735992c7.380005,0 13.320007,5.255997 13.320007,11.735992l0,0z"/>
   <path fill="white" fill-rule="evenodd" stroke="black" stroke-width="0.036" stroke-miterlimit="10" id="path19" d="m271.865997,236.203995c0,1.980011 -1.619995,3.600006 -3.635986,3.600006c-2.016998,0 -3.637024,-1.619995 -3.637024,-3.600006c0,-2.015991 1.620026,-3.636002 3.637024,-3.636002c2.015991,0 3.635986,1.62001 3.635986,3.636002l0,0z"/>
   <path fill-rule="evenodd" stroke="black" stroke-width="0.036" stroke-miterlimit="10" id="path21" d="m292.709991,215.972c-2.59198,-2.447998 -8.062988,-6.335999 -12.131989,-8.604004c-4.283997,-2.412003 -9.287994,-4.463989 -12.671997,-5.18399c-3.384003,-0.720001 -6.696014,-0.360001 -7.164001,0.791992c-0.576019,1.044006 1.403992,3.923996 4.139984,5.436005c2.628021,1.332001 8.31601,1.332001 12.20401,3.059998c3.924011,1.835999 7.920013,5.255997 10.872009,7.488007c2.807983,2.015991 4.247986,4.715988 5.687988,5.18399c1.223999,0.360001 2.268005,-1.188004 2.158997,-2.556c-0.178986,-1.403992 -0.610992,-3.276001 -3.095001,-5.615997l0,0z"/>
   <path fill-rule="evenodd" stroke="black" stroke-width="0.036" stroke-miterlimit="10" id="path23" d="m63.138,229.796005c-5.652,-1.440002 -11.34,-1.188004 -17.208,0.755997c-5.976002,1.871994 -13.428001,4.427994 -18.072001,10.871994c-4.823999,6.408005 -9.539999,17.280014 -9.827999,27.755997c-0.324001,10.548004 4.067999,25.632019 8.316,34.416016c4.175999,8.496002 9,13.787994 16.992001,16.847992c7.992001,2.988007 18.071999,3.20401 30.635998,0.937012l0,0l-10.835999,-91.585007l0,0z"/>
   <path fill="#e8ccba" fill-rule="evenodd" id="path25" d="m59.646,328.184998c9.035999,2.772003 15.408001,1.944 19.404003,-2.483002c3.888,-4.608002 5.219994,-10.47699 4.139999,-24.264984c-1.223999,-14.040009 -7.487999,-45.360016 -11.015999,-58.392014c-3.672005,-12.888 -6.912003,-19.080002 -10.260002,-18.720001l0,0c-0.324001,3.708008 -1.080002,6.408005 -2.556,8.244003c-1.512001,1.692001 -3.312,1.656006 -6.084003,2.520004c-2.952,0.863998 -7.415997,1.007996 -10.907997,2.771988c-3.600002,1.764008 -7.056,2.772003 -10.080002,7.596008c-3.095999,4.751999 -7.019999,12.85199 -7.883999,20.845001c-0.936001,7.919983 0.756001,19.438995 2.448,26.208008c1.656,6.695984 4.823999,10.007996 7.415998,13.679993c2.52,3.419983 4.932003,5.76001 7.812,7.451996c2.844002,1.584015 6.228001,1.835999 8.892002,2.556c2.483997,0.684998 4.751999,-0.432007 6.264,1.656006c1.368,2.014984 2.303997,5.363007 2.411999,10.330994l0,0z"/>
   <path fill-rule="evenodd" stroke="black" stroke-width="0.036" stroke-miterlimit="10" id="path27" d="m436.997986,231.380005c5.616028,-1.440002 11.304016,-1.188004 17.208008,0.755997c5.903992,1.871994 13.320007,4.427994 18.072021,10.871994c4.679993,6.408005 9.539978,17.279999 9.862976,27.756012c0.108002,10.475983 -4.066986,25.703979 -8.35199,34.451996c-4.283997,8.496002 -9.071991,13.824005 -16.992004,16.812012c-8.027008,2.987976 -18.106995,3.203979 -30.635986,0.936981l0,0l10.836975,-91.584991l0,0z"/>
   <path fill="#e8ccba" fill-rule="evenodd" id="path29" d="m440.526001,329.769012c-9.071991,2.843994 -15.444,1.97998 -19.403992,-2.447998c-3.996002,-4.644012 -5.292023,-10.367004 -4.175995,-24.264008c1.115997,-14.040009 7.379974,-45.360016 11.015991,-58.393005c3.600983,-12.923996 6.876007,-19.044006 10.259979,-18.755997l0,0c0.288025,3.707993 1.044006,6.40799 2.557007,8.243988c1.403015,1.656006 3.239014,1.728012 6.084015,2.556c2.880005,0.792007 7.270996,1.008011 10.942993,2.736008c3.492004,1.656006 6.984009,2.843994 10.079987,7.595993c3.024017,4.752014 6.840027,12.852005 7.848999,20.845016c0.828003,7.919983 -0.827972,19.403992 -2.447998,26.243988c-1.728973,6.730988 -4.895996,9.936005 -7.415985,13.644012c-2.627991,3.384003 -5.003998,5.832001 -7.812988,7.487976c-2.916016,1.620026 -6.336029,1.764008 -8.892029,2.52002c-2.59198,0.64798 -4.859985,-0.359009 -6.263977,1.691986c-1.476013,2.015015 -2.268005,5.399994 -2.376007,10.296021l0,0z"/>
   <path fill-rule="evenodd" stroke="black" stroke-width="0.036" stroke-miterlimit="10" id="path31" d="m243.281998,446.013c-8.927994,-0.937012 -12.455994,-0.64801 -22.643997,-3.779999c-10.188004,-3.131989 -26.639999,-8.459991 -37.944,-14.832001c-11.268005,-6.372009 -20.195999,-13.355011 -29.160004,-23.110992c-8.927994,-9.792023 -18.32399,-23.14801 -24.119995,-34.920013c-5.760002,-11.80899 -6.695999,-27.899994 -10.296005,-35.173004c-3.563995,-7.307983 -6.155998,-4.28299 -4.031998,6.013c2.160004,10.296021 12.564003,35.171997 12.564003,35.171997l0,0c6.047997,13.824005 14.040001,25.452026 24.659996,35.712006c10.656006,10.152008 26.352005,18.899017 38.195999,24.876007c11.59201,5.832001 22.751999,7.920013 31.139999,10.29599c8.244003,2.304016 12.276001,2.880005 18.612,3.528015c6.300003,0.575989 12.708008,0.575989 19.080994,0c6.229004,-0.64801 10.296021,-1.225006 18.612,-3.528015c8.388,-2.375977 19.476013,-4.463989 31.176025,-10.29599c11.699982,-5.97699 27.539978,-14.723999 38.195984,-24.876007c10.438995,-10.259979 18.324005,-23.832001 24.623993,-35.712006c6.227997,-11.951996 10.368011,-23.399994 12.563019,-35.171997l0,0c1.151978,-7.488007 1.403992,-11.483978 0.755981,-12.563995c-0.68399,-0.971985 -2.230988,1.115997 -4.786987,6.552002l0,0c-1.152008,11.845001 -4.536011,23.364014 -10.296997,35.173004c-5.796021,11.770996 -15.19101,25.127991 -24.119019,34.919983c-8.964996,9.756012 -17.892975,16.739014 -29.159973,23.111023c-11.305023,6.371979 -27.756012,11.699982 -37.944,14.832001c-10.152008,3.131989 -13.716003,2.843994 -22.608002,3.779999c-8.930008,0.93399 -4.178009,0.93399 -13.069016,-0.001007l0,0z"/>
   <path fill-rule="evenodd" stroke="black" stroke-width="0.036" stroke-miterlimit="10" id="path33" d="m50.970001,252.332001c-2.196003,1.835999 -6.768002,9.540009 -8.280003,14.652008c-1.584,5.075989 -2.736,11.520996 -0.935997,15.587982c1.691998,3.925018 7.127998,7.776001 11.447998,7.956024c4.32,-0.036011 10.116001,-7.380005 14.327999,-7.308014c4.068001,0.144012 8.388,8.208008 10.188004,7.955994c1.655998,-0.395996 1.475998,-7.451996 0,-10.187988c-1.728004,-2.843994 -5.364006,-6.768005 -9.540001,-6.372009c-4.32,0.433014 -11.736,8.352997 -15.300003,8.604004c-3.599998,-0.036011 -6.155998,-3.384003 -5.723999,-7.955994c0.431999,-4.716003 7.596001,-15.588013 8.279999,-19.440002c0.540001,-3.924011 -2.339996,-5.363998 -4.463997,-3.492004l0,0z"/>
   <path fill-rule="evenodd" stroke="black" stroke-width="0.036" stroke-miterlimit="10" id="path35" d="m449.993988,252.332001c2.088013,1.835999 6.696014,9.540009 8.279999,14.652008c1.584015,5.075989 2.556,11.520996 0.972015,15.587982c-1.90799,3.925018 -7.127991,7.776001 -11.484009,7.956024c-4.427979,-0.036011 -10.223999,-7.380005 -14.326996,-7.308014c-4.177002,0.144012 -8.496002,8.208008 -10.187988,7.955994c-1.764008,-0.395996 -1.584015,-7.451996 0,-10.187988c1.656006,-2.843994 5.255981,-6.768005 9.539978,-6.372009c4.212006,0.433014 11.628021,8.352997 15.300018,8.604004c3.492004,-0.036011 6.048004,-3.384003 5.723999,-7.955994c-0.503998,-4.716003 -7.703003,-15.588013 -8.278992,-19.440002c-0.650024,-3.924011 2.265991,-5.363998 4.461975,-3.492004l0,0z"/>
   <path fill-rule="evenodd" stroke="black" stroke-width="0.036" stroke-miterlimit="10" id="path37" d="m253.108994,16.676001c-6.335999,-7.416 -14.939987,-12.132 -26.35199,-14.436001c-11.59201,-2.268 -26.496002,-3.924 -41.652008,0.864c-15.227997,4.68 -31.608002,13.5 -48.167999,27.431999c-16.595993,14.004002 -36.071999,34.775997 -50.363998,55.511997c-14.363998,20.664001 -25.991997,48.02401 -34.739998,67.103996c-8.748001,18.900009 -11.556,35.244003 -17.459999,45.432007c-6.084002,10.007996 -12.276001,10.944 -18.000002,14.328003c-5.796,3.203995 -13.931999,1.115997 -15.659999,5.255997c-1.8,4.139999 -0.144,14.147995 5.4,19.332001c5.616,5.003998 19.044,9.684006 27.791999,10.692001c8.639999,0.828003 16.308002,-1.007996 23.544003,-5.507996l0,0c19.368,4.679993 33.875996,6.299988 43.955997,4.860001c9.863998,-1.584 13.823997,-2.916 15.912003,-13.716003c2.087997,-11.016006 -7.056,-33.372009 -3.276001,-51.084c3.708,-17.820007 12.059998,-39.419998 25.632004,-54.64801c13.535995,-15.263992 39.311996,-29.951996 55.259995,-36.14399c15.804001,-6.156006 30.600006,-1.836006 39.528,-0.792c8.820007,0.863998 8.388,6.371994 13.428009,6.407997c4.931992,-0.036003 10.259979,-4.788002 16.128998,-6.335999c5.79599,-1.656006 10.151001,-5.328003 18.898987,-3.240005c8.820007,1.980003 23.256012,8.496002 33.192017,15.228004c9.68399,6.624001 16.703979,13.355995 25.09198,24.515999c8.388,11.088005 18.395996,24.228004 24.624023,41.903999c5.938995,17.748001 6.515991,50.292007 11.59198,63.468002c5.14801,12.959991 11.736023,10.871994 18.937012,14.147995c7.019989,3.167999 13.751984,5.400009 23.398987,5.040009c9.64801,-0.468002 20.809021,-2.916 34.020996,-7.488007l0,0c5.651001,-0.035995 12.203003,-1.080002 19.943024,-3.276001c7.703979,-2.26799 18.755981,-4.104004 26.063995,-9.828003c7.199982,-5.867996 18.468018,-19.332001 17.135986,-24.839996c-1.476013,-5.580002 -19.079987,-5.184006 -25.595978,-8.136002c-6.517029,-2.987991 -7.09201,2.339996 -13.536011,-9.576004c-6.623993,-12.131989 -14.76001,-39.995987 -25.776001,-61.919991c-11.195007,-21.959999 -23.328003,-50.472 -40.283997,-68.868004c-17.207001,-18.503998 -41.003998,-32.147999 -60.983002,-41.219999c-20.015991,-9.072 -42.623993,-11.843999 -57.420013,-12.887999c-14.725006,-1.044 -23.687988,4.068 -30.384003,6.3c-6.803986,2.016 -9.936981,4.104 -9.828995,6.120001l0,0z"/>
   <path fill="#49322a" fill-rule="evenodd" id="path39" d="m108.57,65.779999c9,-10.871998 18.792,-20.34 29.663994,-28.944c10.836014,-8.747999 24.12001,-16.955999 35.136002,-22.247998c10.944,-5.256001 20.304001,-8.28 30.312012,-8.928c9.972,-0.684 21.311996,2.448 29.159988,4.824c7.70401,2.196 13.751999,3.276 17.172012,8.928c3.275986,5.615999 2.26799,15.696001 2.951996,24.696001c0.68399,8.927998 1.511993,20.268997 0.935989,28.476997c-0.755997,8.099998 -2.375992,14.472 -5.147995,19.692001l0,0c-3.492004,-2.916 -8.964005,-4.968002 -16.559998,-6.300003c-7.776001,-1.403999 -18.863998,-3.455994 -29.087997,-1.691994c-10.332001,1.764 -20.087997,4.931999 -31.78801,12.131996c-11.771988,7.164001 -28.187988,19.152 -38.015991,30.276001c-9.863998,11.051994 -16.272003,23.219994 -20.484001,35.532005c-4.176003,12.23999 -4.860001,25.667999 -4.571999,37.079987c0.287994,11.23201 6.695999,22.392014 5.759995,29.880005c-1.295998,7.272003 -6.011993,11.880005 -12.203995,14.112c-6.300003,2.160004 -16.344002,0.108002 -24.300003,-0.755997c-7.884003,-0.899994 -15.444,-2.412003 -22.823997,-4.535995l0,0c-6.66,5.003998 -13.572002,7.343994 -20.880001,7.019989c-7.488001,-0.503998 -18.072001,-5.255997 -23.004001,-9.251999c-5.039999,-4.067993 -8.064,-11.195999 -6.3,-14.580002c1.8,-3.491989 11.628,-2.663986 17.244001,-5.832001c5.543999,-3.347992 10.656,-4.319992 15.912001,-13.175995c5.147999,-9 8.028,-23.580002 15.048,-39.563995c6.983997,-16.128006 17.207996,-39.528 26.639996,-55.764c9.360001,-16.237 18.972,-29.737 29.232002,-41.077003l0,0z"/>
   <path fill="#49322a" fill-rule="evenodd" id="path41" d="m254.802002,19.771999c5.579987,-4.931999 13.247986,-8.027999 23.399994,-9.719999c10.007996,-1.764 21.996002,-3.492 36.936005,-0.18c14.940002,3.312 36.144989,10.728001 52.381012,19.908001c16.162994,9.072001 30.742981,18.323999 43.884003,34.415998c12.995972,16.092003 24.875977,43.416 33.694977,61.127998c8.641022,17.568001 13.177002,31.500008 18.324005,43.739998c4.968018,12.167999 6.660004,22.17601 12.024017,28.62001c5.471985,6.155991 14.938995,7.199997 20.339996,8.819992c5.18399,1.512009 8.604004,-0.576004 11.087982,0.684006c2.376007,1.259995 5.508026,2.807999 3.420013,6.731995c-2.339996,3.888 -9.036011,12.132004 -16.343994,16.380005c-7.452026,4.104004 -19.656006,6.731995 -27.180023,8.279999c-7.560974,1.475998 -13.177002,1.619995 -17.388977,0.576004l0,0c-4.680023,5.363998 -11.304016,7.955994 -20.304016,8.063995c-9.071991,-0.035995 -20.052002,-2.556 -33.515991,-7.848007l0,0c-3.455994,1.26001 -6.372009,0.432007 -9.036011,-2.339996c-2.664001,-2.807999 -4.608002,-4.319992 -6.804993,-14.543991c-2.304016,-10.548004 -1.584015,-31.212006 -6.876007,-47.268005c-5.436005,-16.164001 -15.227997,-34.559998 -25.343994,-48.239998c-10.29599,-13.824005 -24.588013,-25.380005 -35.388,-33.120003c-10.765015,-7.596001 -19.368011,-11.807999 -28.872009,-12.239998c-9.64798,-0.504005 -18.863983,2.627998 -28.187988,9.395996l0,0c2.519989,-6.047997 4.032013,-13.391998 4.536011,-22.32c0.432983,-8.964001 -0.792023,-22.931999 -1.584015,-31.068001c-0.862,-8.171999 -1.834991,-14.075998 -3.201996,-17.855999l0,0z"/>
   <path fill-rule="evenodd" stroke="black" stroke-width="0.036" stroke-miterlimit="10" id="path43" d="m277.302002,30.644001c3.636993,-1.980001 11.016998,-8.280001 22.968994,-7.632002c11.950989,0.576 32.544006,2.880001 47.880005,11.628c15.19101,8.784 28.438995,22.751999 42.515991,40.788002c13.968018,18.071999 29.988007,46.655998 40.716003,66.708c10.513,19.908005 16.200012,40.212006 22.320007,52.020004c5.903992,11.627991 7.847992,13.571991 13.751984,17.495987c5.939026,3.600006 19.223999,3.672012 21.81601,5.076004c2.519989,1.475998 -2.376984,3.528 -6.768982,3.384003c-4.608002,-0.324005 -14.399017,-0.684006 -20.196014,-5.112c-5.867004,-4.535995 -8.604004,-9.720001 -14.436005,-21.671997c-5.867981,-12.096008 -12.384003,-33.156006 -20.664001,-50.003998c-8.388,-16.992004 -18.791992,-35.568008 -29.123993,-50.724007c-10.476013,-15.155998 -22.716003,-29.952 -32.976013,-39.528c-10.332001,-9.647999 -18.684998,-13.859997 -28.548981,-18.071999c-10.07901,-4.392 -22.535004,-6.408001 -30.85202,-7.416c-8.315979,-0.972 -13.859985,0.468 -18.431976,1.692001c-4.5,1.08 -7.236023,4.751999 -8.783997,5.040001c-1.72702,0.107998 -4.859009,-1.764004 -1.187012,-3.672001l0,0z"/>
   <path fill-rule="evenodd" stroke="black" stroke-width="0.036" stroke-miterlimit="10" id="path45" d="m275.717987,46.52c6.013,-1.656002 21.564026,-7.344002 34.164001,-4.284c12.492004,2.952 26.712006,10.043999 40.320007,22.391998c13.536011,12.492004 27.864014,30.564003 40.212006,51.444c12.20401,20.771996 23.903992,55.368004 32.471985,72.252007c8.460022,16.631989 15.840027,22.715988 17.820007,27.395996c1.729004,4.572006 -2.231995,6.768005 -6.876007,0.216003c-4.715973,-6.804001 -13.608002,-24.695999 -20.843994,-39.924011c-7.345001,-15.444 -14.291992,-35.531998 -22.787994,-50.97599c-8.675995,-15.552002 -18.791992,-29.412003 -28.26001,-40.752007c-9.432983,-11.447998 -20.123993,-20.375996 -27.791992,-26.495998c-7.776001,-6.084 -11.592987,-7.559998 -18.251984,-9.431999c-6.841003,-1.907997 -14.725006,-2.591999 -21.708008,-1.907997c-7.128998,0.575996 -16.667999,5.292 -19.872009,5.399998c-3.131989,-0.071999 -4.608002,-3.743999 1.403992,-5.327999l0,0z"/>
   <path fill-rule="evenodd" stroke="black" stroke-width="0.036" stroke-miterlimit="10" id="path47" d="m273.089996,61.928001c5.97699,-0.540001 25.884003,-1.368 36.972992,1.403999c10.872009,2.844002 18.468018,4.788002 28.476013,15.407997c9.971985,10.584 22.283997,32.400002 31.104004,47.520004c8.677002,15.012001 12.779999,25.596001 20.915985,42.047997c8.137024,16.380005 23.076019,45.863998 27.181,55.548004c3.85202,9.32399 1.115997,9.395996 -3.635986,1.188004c-4.933014,-8.424011 -16.345001,-33.264008 -24.912018,-50.364014c-8.567993,-17.207993 -16.991974,-35.819992 -25.955994,-51.371994c-9.071991,-15.552002 -18.144989,-31.32 -27.755981,-40.788002c-9.684998,-9.359993 -19.332001,-12.635994 -29.520996,-15.371994c-10.296021,-2.808006 -25.596008,-0.792 -31.176025,-1.584c-5.544983,-0.900002 -7.632996,-3.312004 -1.692993,-3.636002l0,0z"/>
   <path fill-rule="evenodd" stroke="black" stroke-width="0.036" stroke-miterlimit="10" id="path49" d="m239.970001,23.444c-4.283997,-1.799999 -12.960007,-7.416 -26.028,-6.012001c-13.283997,1.404001 -36.035995,5.184 -52.307999,14.940002c-16.236008,9.899998 -30.167999,24.551998 -44.316002,43.667999c-14.435997,19.115997 -30.059998,48.599998 -40.5,69.443993c-10.403999,20.556 -15.228001,41.292007 -21.132,53.460007c-5.940002,11.880005 -7.704002,14.255997 -14.040001,18.395996c-6.444,4.17601 -21.096001,4.895996 -23.832001,6.587997c-2.735999,1.584 2.700001,3.384003 7.704,2.916c4.896,-0.647995 15.948,-1.727997 22.067999,-6.551987c6.012001,-4.860001 8.856003,-10.404007 14.508003,-22.608002c5.652,-12.528 11.304001,-33.840012 19.439995,-51.300003c8.064003,-17.460007 18.252007,-36.864006 28.764,-52.667999c10.440002,-15.948006 23.004005,-31.356003 33.804008,-41.760002c10.727997,-10.404003 19.619995,-15.084 30.419998,-20.016001c10.835999,-5.040001 24.479996,-7.992001 33.731995,-9.540001c9.035995,-1.476 15.372009,-0.576 20.556,0.360001c5.076004,0.792 8.171997,4.212 10.115997,4.427999c1.835999,0.036001 5.14801,-2.087999 1.044006,-3.743999l0,0z"/>
   <path fill-rule="evenodd" stroke="black" stroke-width="0.036" stroke-miterlimit="10" id="path51" d="m236.658005,44.792c-6.587997,-1.655998 -22.680008,-6.731998 -36.756012,-4.248001c-14.112,2.412003 -31.895996,7.632 -46.691986,19.007999c-14.796005,11.411999 -28.728004,27.467999 -41.112007,48.852001c-12.419998,21.420006 -24.515999,59.256004 -32.832001,78.372002c-8.496002,18.828003 -15.155998,29.231995 -17.208,34.703995c-1.98,5.363998 0.396,5.508011 5.183998,-2.339996c4.644005,-8.136002 14.904007,-27.576004 22.572006,-44.712006c7.451996,-17.135986 14.003998,-40.643997 22.571999,-57.059998c8.639999,-16.451996 19.511993,-30.239998 28.727997,-40.535995c9.035995,-10.260002 16.956009,-15.875999 25.703995,-20.880001c8.712006,-5.076 18.252014,-7.523998 26.67601,-9.287998c8.388,-1.908001 15.731995,-2.556 23.291992,-1.944c7.488007,0.467999 18,5.363998 21.419998,5.399998c3.312012,-0.071999 4.78801,-3.743999 -1.547989,-5.327999l0,0z"/>
   <path fill-rule="evenodd" stroke="black" stroke-width="0.036" stroke-miterlimit="10" id="path53" d="m228.845993,67.435997c-5.579987,-1.439995 -19.223999,-5.651997 -31.067993,-3.599998c-11.988007,1.979004 -26.712006,6.732002 -39.455994,16.056c-12.852005,9.360001 -25.164001,21.888 -36.360008,39.816002c-11.231995,18.036003 -23.112,50.435997 -29.951996,66.924004c-6.840004,16.127991 -9.720001,25.37999 -10.728004,30.095993c-1.152,4.680008 0.864006,5.507996 4.392006,-1.979996c3.635994,-7.848007 10.295998,-28.044006 16.919998,-43.236008c6.407997,-15.191986 14.003998,-33.695999 21.671997,-46.619995c7.596001,-12.995995 16.092003,-22.283997 23.832008,-30.383995c7.523987,-7.992004 14.291992,-13.5 21.707993,-17.640007c7.451996,-4.355995 15.335999,-6.227997 22.535995,-7.848c7.056,-1.655998 13.356003,-2.159996 19.728012,-1.655998c6.371994,0.431999 15.119995,4.5 18.071991,4.571999c2.735001,-0.107994 4.067001,-3.131996 -1.296005,-4.5l0,0z"/>
   <path fill-rule="evenodd" stroke="black" stroke-width="0.036" stroke-miterlimit="10" id="path55" d="m262.649994,97.603996c2.483002,-1.619995 10.907013,-3.671997 16.235016,-3.671997c5.220978,0.071999 10.835999,1.764 14.903992,3.708c3.888,1.800003 8.532013,6.012001 8.675995,7.092003c0.036011,0.900002 -4.283997,-0.18 -7.955994,-1.296005c-3.743988,-1.152 -8.891998,-5.255997 -13.895996,-5.363998c-5.14801,-0.18 -13.141022,4.824005 -16.200012,4.751999c-3.02298,-0.143997 -4.210999,-3.779999 -1.763,-5.220001l0,0z"/>
   <path fill-rule="evenodd" stroke="black" stroke-width="0.036" stroke-miterlimit="10" id="path57" d="m324.102997,120.391998c2.446991,3.888 12.527008,13.608002 16.487,20.016006c3.889008,6.192001 5.544006,16.307999 6.912018,17.71199c1.259979,1.223999 2.195984,-4.860001 0.719971,-9.503998c-1.583984,-4.716003 -6.371979,-12.888 -10.079987,-18.143997c-3.924011,-5.328003 -10.187988,-11.664001 -12.562988,-13.32c-2.449005,-1.764 -3.960999,-0.683998 -1.476013,3.239998l0,0z"/>
   <path fill-rule="evenodd" stroke="black" stroke-width="0.036" stroke-miterlimit="10" id="path59" d="m378.966003,247.832001c1.079987,1.367996 8.531982,6.300003 13.463989,8.532013c4.860016,2.123993 11.123993,3.85199 15.444,4.211975c4.067993,0.180023 10.296021,-1.871979 9.395996,-2.951996c-1.044983,-1.152008 -9.756989,-2.159988 -14.903992,-3.707993c-5.291992,-1.692001 -12.061005,-4.787994 -16.020996,-5.796005c-3.923004,-1.080002 -8.459015,-1.727997 -7.378998,-0.287994l0,0z"/>
   <path fill-rule="evenodd" stroke="black" stroke-width="0.036" stroke-miterlimit="10" id="path61" d="m348.690002,162.548004c0.070984,1.619995 1.044006,2.87999 2.195007,2.843994c1.187988,-0.035995 2.087982,-1.367996 2.016998,-2.951996c-0.036011,-1.619995 -1.044006,-2.880005 -2.196014,-2.844009c-1.152008,0.036011 -2.052002,1.368011 -2.015991,2.952011l0,0z"/>
   <path fill-rule="evenodd" stroke="black" stroke-width="0.036" stroke-miterlimit="10" id="path63" d="m353.190002,170.324005c0.035004,1.619995 1.044006,2.87999 2.195007,2.843994c1.151978,-0.035995 2.052979,-1.367996 2.016998,-2.988007c-0.072021,-1.584 -1.044006,-2.843994 -2.196014,-2.807999c-1.186981,0.036011 -2.087982,1.368011 -2.015991,2.952011l0,0z"/>
   <path fill-rule="evenodd" stroke="black" stroke-width="0.036" stroke-miterlimit="10" id="path65" d="m250.625,101.456001c0.072006,1.584 1.044006,2.844002 2.231995,2.807999c1.152008,-0.036003 2.052002,-1.367996 1.980011,-2.952003c-0.036011,-1.619995 -1.008011,-2.879997 -2.195999,-2.843994c-1.151001,0.035995 -2.052002,1.367996 -2.016006,2.987999l0,0z"/>
   <path fill-rule="evenodd" stroke="black" stroke-width="0.036" stroke-miterlimit="10" id="path67" d="m421.519012,258.308014c0.070984,1.583984 1.043976,2.843994 2.194977,2.807983c1.188019,-0.036011 2.088013,-1.368011 2.016998,-2.951996c-0.03598,-1.619995 -1.043976,-2.880005 -2.195984,-2.843994c-1.153015,0.035995 -2.053009,1.367981 -2.015991,2.988007l0,0z"/>
   <path fill-rule="evenodd" stroke="black" stroke-width="0.036" stroke-miterlimit="10" id="path69" d="m93.197998,254.923996c0.071999,1.62001 1.043999,2.87999 2.232002,2.844009c1.152,-0.036011 2.052002,-1.368011 2.015999,-2.988007c-0.071999,-1.584 -1.043999,-2.843994 -2.232002,-2.807999c-1.152,0.035995 -2.051994,1.367996 -2.015999,2.951996l0,0z"/>
   <path fill-rule="evenodd" stroke="black" stroke-width="0.036" stroke-miterlimit="10" id="path71" d="m58.782001,250.531998c1.835999,1.223999 6.875996,3.240005 11.231998,4.391998c4.211998,1.080002 11.987999,2.448013 14.292,2.160019c2.232002,-0.360016 1.223999,-3.384018 -0.648003,-4.212021c-2.051994,-0.972 -7.056,-0.360001 -11.124001,-1.223999c-4.139999,-1.007996 -11.087997,-4.103989 -13.355995,-4.283997c-2.376003,-0.251999 -2.232002,1.871994 -0.396,3.167999l0,0z"/>
  </g>
 </g>
</svg>